<svg xmlns="http://www.w3.org/2000/svg" viewBox="0 0 850.68 68.81"><path d="M585.94,0H252.53l39,31.55a4,4,0,0,1,0,6.22l-38.27,31H586.72l42.09-34.14Z" style="fill:#ffc54e"/><path d="M239.8,0H10.74A10.74,10.74,0,0,0,0,10.74V58.06A10.74,10.74,0,0,0,10.74,68.81H240.59l42.09-34.14Z" style="fill:#be696e"/><path d="M839.93,0H598.66l39,31.55a4,4,0,0,1,0,6.22l-38.27,31H839.93a10.75,10.75,0,0,0,10.75-10.75V10.74A10.75,10.75,0,0,0,839.93,0Z" style="fill:#8dbd5b"/><path d="M89.42,28.26h4.86a5.73,5.73,0,0,1,1.92.3,3.94,3.94,0,0,1,1.42.84,3.61,3.61,0,0,1,.9,1.3,4.29,4.29,0,0,1,.32,1.67v0a4.2,4.2,0,0,1-.38,1.82,3.62,3.62,0,0,1-1,1.3,4.47,4.47,0,0,1-1.53.8,6.72,6.72,0,0,1-1.88.26H92v3.57H89.42Zm4.69,6a2.1,2.1,0,0,0,1.53-.52,1.67,1.67,0,0,0,.55-1.28v0a1.62,1.62,0,0,0-.57-1.34,2.46,2.46,0,0,0-1.56-.46H92v3.64Z" style="fill:#fff"/><path d="M100.62,27.75h2.59V40.16h-2.59Z" style="fill:#fff"/><path d="M108.22,40.33a4,4,0,0,1-1.21-.18,2.93,2.93,0,0,1-1-.54,2.54,2.54,0,0,1-.67-.87,2.86,2.86,0,0,1-.25-1.2v0a2.85,2.85,0,0,1,.28-1.29,2.47,2.47,0,0,1,.75-.91,3.64,3.64,0,0,1,1.16-.53,5.74,5.74,0,0,1,1.49-.18,6.15,6.15,0,0,1,1.21.1,8.32,8.32,0,0,1,1,.27v-.15a1.54,1.54,0,0,0-.49-1.24,2.21,2.21,0,0,0-1.46-.42,6.46,6.46,0,0,0-1.32.12,9.54,9.54,0,0,0-1.2.37l-.64-2a9.24,9.24,0,0,1,1.56-.53,8,8,0,0,1,2-.2,5.45,5.45,0,0,1,1.83.26,3.21,3.21,0,0,1,1.25.76,3,3,0,0,1,.75,1.24,5.41,5.41,0,0,1,.24,1.66v5.29H111v-1a3.67,3.67,0,0,1-1.14.84A3.74,3.74,0,0,1,108.22,40.33Zm.78-1.79a2.27,2.27,0,0,0,1.48-.44A1.42,1.42,0,0,0,111,37v-.46a3.39,3.39,0,0,0-.76-.25,4.19,4.19,0,0,0-.89-.09,2.27,2.27,0,0,0-1.31.32,1.07,1.07,0,0,0-.48.94v0a1,1,0,0,0,.39.82A1.73,1.73,0,0,0,109,38.54Z" style="fill:#fff"/><path d="M120,40.36a4.6,4.6,0,0,1-4.38-2.88,4.67,4.67,0,0,1-.36-1.83v0a4.83,4.83,0,0,1,1.34-3.35,4.57,4.57,0,0,1,1.51-1,4.81,4.81,0,0,1,1.93-.37,4.44,4.44,0,0,1,3.64,1.53l-1.59,1.7a4,4,0,0,0-.9-.73A2.23,2.23,0,0,0,120,33.1a2,2,0,0,0-.89.2,2.28,2.28,0,0,0-.7.53,2.53,2.53,0,0,0-.46.8,2.76,2.76,0,0,0-.16,1v0a2.94,2.94,0,0,0,.16,1,2.56,2.56,0,0,0,.47.8,2.29,2.29,0,0,0,.73.53,2.24,2.24,0,0,0,1,.2,2.28,2.28,0,0,0,1.13-.27,4.34,4.34,0,0,0,1-.7l1.52,1.53a6.29,6.29,0,0,1-1.52,1.2A4.56,4.56,0,0,1,120,40.36Z" style="fill:#fff"/><path d="M129.73,40.36a5.17,5.17,0,0,1-1.9-.34,4.26,4.26,0,0,1-1.51-1,4.45,4.45,0,0,1-1-1.48,5.13,5.13,0,0,1-.35-1.92v0a5.13,5.13,0,0,1,.33-1.84,4.67,4.67,0,0,1,.93-1.51,4.3,4.3,0,0,1,3.24-1.39,4.44,4.44,0,0,1,2,.4,4.09,4.09,0,0,1,1.39,1.1,4.66,4.66,0,0,1,.82,1.58,6.79,6.79,0,0,1,.26,1.86c0,.11,0,.21,0,.33s0,.23,0,.35h-6.35a2.22,2.22,0,0,0,.78,1.34,2.3,2.3,0,0,0,1.45.45,2.86,2.86,0,0,0,1.16-.22,4,4,0,0,0,1.05-.72l1.48,1.31a4.5,4.5,0,0,1-1.56,1.25A4.9,4.9,0,0,1,129.73,40.36Zm1.66-5.47a2.47,2.47,0,0,0-.61-1.4,1.68,1.68,0,0,0-1.31-.54,1.72,1.72,0,0,0-1.31.53,2.58,2.58,0,0,0-.66,1.41Z" style="fill:#fff"/><path d="M139.57,40.33A4,4,0,0,1,138,40a3.6,3.6,0,0,1-1.32-.91,4.35,4.35,0,0,1-.93-1.48,5.42,5.42,0,0,1-.35-2v0a5.52,5.52,0,0,1,.35-2,4.59,4.59,0,0,1,.92-1.48,3.86,3.86,0,0,1,1.32-.91,4.13,4.13,0,0,1,1.56-.3,3.28,3.28,0,0,1,1.71.4,4.63,4.63,0,0,1,1.13,1V27.75H145V40.16h-2.58V38.85a4.15,4.15,0,0,1-1.15,1.06A3.14,3.14,0,0,1,139.57,40.33Zm.66-2.19a2,2,0,0,0,.86-.18,2.07,2.07,0,0,0,.7-.51,2.35,2.35,0,0,0,.47-.8,2.86,2.86,0,0,0,.18-1v0a2.82,2.82,0,0,0-.18-1,2.35,2.35,0,0,0-.47-.8,2.07,2.07,0,0,0-.7-.51,2.12,2.12,0,0,0-1.71,0,2.11,2.11,0,0,0-.71.51,2.33,2.33,0,0,0-.48.79,2.8,2.8,0,0,0-.18,1v0a2.86,2.86,0,0,0,.18,1,2.37,2.37,0,0,0,.48.8,2.11,2.11,0,0,0,.71.51A2,2,0,0,0,140.23,38.14Z" style="fill:#fff"/><path d="M391.8,28.26h2.61v11.9H391.8Z" style="fill:#fff"/><path d="M397.12,31.05h2.58v1.3a6.33,6.33,0,0,1,.49-.56,3.84,3.84,0,0,1,.58-.47,3.35,3.35,0,0,1,.72-.32,3,3,0,0,1,.88-.12,2.92,2.92,0,0,1,2.29.9,3.57,3.57,0,0,1,.8,2.48v5.9h-2.58V35.09a2,2,0,0,0-.41-1.38,1.44,1.44,0,0,0-1.15-.47,1.52,1.52,0,0,0-1.18.47,2,2,0,0,0-.44,1.38v5.07h-2.58Z" style="fill:#fff"/><path d="M415.85,30.67h-3.62V28.26h9.86v2.41h-3.62v9.49h-2.62Z" style="fill:#fff"/><path d="M423.82,31.05h2.59v1.83a3.79,3.79,0,0,1,1.07-1.49,2.53,2.53,0,0,1,1.83-.51v2.7h-.13a2.66,2.66,0,0,0-2,.78,3.4,3.4,0,0,0-.74,2.43v3.37h-2.59Z" style="fill:#fff"/><path d="M433.51,40.33a4,4,0,0,1-1.21-.18,2.93,2.93,0,0,1-1-.54,2.54,2.54,0,0,1-.67-.87,2.86,2.86,0,0,1-.24-1.2v0a2.86,2.86,0,0,1,.27-1.29,2.47,2.47,0,0,1,.75-.91,3.64,3.64,0,0,1,1.16-.53,5.74,5.74,0,0,1,1.49-.18,6.15,6.15,0,0,1,1.21.1,8.48,8.48,0,0,1,1,.27v-.15a1.55,1.55,0,0,0-.5-1.24,2.19,2.19,0,0,0-1.46-.42,6.46,6.46,0,0,0-1.32.12,9.54,9.54,0,0,0-1.2.37l-.64-2a9.24,9.24,0,0,1,1.56-.53,8.07,8.07,0,0,1,2-.2,5.45,5.45,0,0,1,1.83.26,3.14,3.14,0,0,1,1.25.76,3,3,0,0,1,.75,1.24,5.41,5.41,0,0,1,.24,1.66v5.29h-2.5v-1a3.67,3.67,0,0,1-1.14.84A3.74,3.74,0,0,1,433.51,40.33Zm.79-1.79a2.26,2.26,0,0,0,1.47-.44,1.42,1.42,0,0,0,.55-1.15v-.46a3.39,3.39,0,0,0-.76-.25,4.19,4.19,0,0,0-.89-.09,2.27,2.27,0,0,0-1.31.32,1.06,1.06,0,0,0-.47.94v0a1,1,0,0,0,.39.82A1.69,1.69,0,0,0,434.3,38.54Z" style="fill:#fff"/><path d="M441,31.05h2.59v1.3c.15-.19.31-.38.48-.56a3.93,3.93,0,0,1,.59-.47,2.91,2.91,0,0,1,1.6-.44,2.9,2.9,0,0,1,2.28.9,3.58,3.58,0,0,1,.81,2.48v5.9h-2.58V35.09a2,2,0,0,0-.41-1.38,1.46,1.46,0,0,0-1.16-.47,1.54,1.54,0,0,0-1.18.47,2,2,0,0,0-.43,1.38v5.07H441Z" style="fill:#fff"/><path d="M454.78,40.33A6.34,6.34,0,0,1,450.87,39l1.11-1.7a6.08,6.08,0,0,0,1.48.82,4.11,4.11,0,0,0,1.39.27,1.38,1.38,0,0,0,.82-.19.57.57,0,0,0,.27-.49v0a.46.46,0,0,0-.16-.36,1.26,1.26,0,0,0-.41-.26,5.31,5.31,0,0,0-.61-.22l-.71-.22a9.09,9.09,0,0,1-1-.33,3.49,3.49,0,0,1-.88-.51,2.48,2.48,0,0,1-.63-.77,2.3,2.3,0,0,1-.25-1.13v0a2.85,2.85,0,0,1,.26-1.23,2.79,2.79,0,0,1,.72-.91,3,3,0,0,1,1.05-.56,4.21,4.21,0,0,1,1.3-.19,5.72,5.72,0,0,1,1.76.28,6.52,6.52,0,0,1,1.64.78l-1,1.78a8.25,8.25,0,0,0-1.33-.62,3.54,3.54,0,0,0-1.14-.23,1.16,1.16,0,0,0-.71.18.54.54,0,0,0-.24.45v0a.43.43,0,0,0,.15.33,1.72,1.72,0,0,0,.41.28c.17.08.37.16.59.24l.7.24a8.33,8.33,0,0,1,1,.37,4,4,0,0,1,.88.51,2.59,2.59,0,0,1,.65.75,2.12,2.12,0,0,1,.26,1.07v0a3,3,0,0,1-.27,1.32,2.32,2.32,0,0,1-.74.9,3.28,3.28,0,0,1-1.11.54A5,5,0,0,1,454.78,40.33Z" style="fill:#fff"/><path d="M460.17,27.75h2.72V30h-2.72Zm.07,3.3h2.58v9.11h-2.58Z" style="fill:#fff"/><path d="M468.33,40.31a4,4,0,0,1-1.08-.13,1.82,1.82,0,0,1-.83-.45,2.12,2.12,0,0,1-.55-.84,3.76,3.76,0,0,1-.19-1.32V33.26h-1.09V31.05h1.09V28.72h2.58v2.33h2.14v2.21h-2.14v3.9c0,.6.28.89.83.89a2.5,2.5,0,0,0,1.28-.34v2.07a4.08,4.08,0,0,1-.9.39A4.34,4.34,0,0,1,468.33,40.31Z" style="fill:#fff"/><path d="M711,28.26h4.65a7,7,0,0,1,2.55.45,6.05,6.05,0,0,1,2,1.25,5.61,5.61,0,0,1,1.3,1.88,5.85,5.85,0,0,1,.46,2.34v0a5.85,5.85,0,0,1-.46,2.34,5.55,5.55,0,0,1-1.3,1.89,6.24,6.24,0,0,1-2,1.26,6.8,6.8,0,0,1-2.55.46H711Zm4.65,9.54a4,4,0,0,0,1.46-.26,3.11,3.11,0,0,0,1.13-.73,3.56,3.56,0,0,0,.73-1.12,3.9,3.9,0,0,0,.26-1.45v0a4.06,4.06,0,0,0-.26-1.45,3.54,3.54,0,0,0-.73-1.14,3.24,3.24,0,0,0-1.13-.73,3.83,3.83,0,0,0-1.46-.27h-2V37.8Z" style="fill:#fff"/><path d="M728.37,40.36a5.08,5.08,0,0,1-1.89-.34,4.26,4.26,0,0,1-1.51-1,4.45,4.45,0,0,1-1-1.48,4.94,4.94,0,0,1-.36-1.92v0a4.93,4.93,0,0,1,.34-1.84,4.82,4.82,0,0,1,.92-1.51,4.67,4.67,0,0,1,5.22-1,4.09,4.09,0,0,1,1.39,1.1,4.64,4.64,0,0,1,.81,1.58,6.44,6.44,0,0,1,.27,1.86c0,.11,0,.21,0,.33l0,.35h-6.34a2.21,2.21,0,0,0,.77,1.34,2.35,2.35,0,0,0,1.46.45,2.81,2.81,0,0,0,1.15-.22,4,4,0,0,0,1.06-.72l1.48,1.31a4.44,4.44,0,0,1-1.57,1.25A4.84,4.84,0,0,1,728.37,40.36ZM730,34.89a2.47,2.47,0,0,0-.61-1.4,1.7,1.7,0,0,0-1.31-.54,1.76,1.76,0,0,0-1.32.53,2.65,2.65,0,0,0-.65,1.41Z" style="fill:#fff"/><path d="M734.6,27.75h2.58V40.16H734.6Z" style="fill:#fff"/><path d="M739.66,27.75h2.72V30h-2.72Zm.07,3.3h2.58v9.11h-2.58Z" style="fill:#fff"/><path d="M743.93,31.05h2.74l2,6.1,2-6.1h2.69l-3.59,9.18h-2.34Z" style="fill:#fff"/><path d="M759.26,40.36a5.08,5.08,0,0,1-1.89-.34,4.3,4.3,0,0,1-1.52-1,4.58,4.58,0,0,1-1-1.48,4.94,4.94,0,0,1-.36-1.92v0a5.13,5.13,0,0,1,.33-1.84,4.85,4.85,0,0,1,.93-1.51A4.3,4.3,0,0,1,759,30.88a4.47,4.47,0,0,1,2,.4,4.05,4.05,0,0,1,1.38,1.1,4.66,4.66,0,0,1,.82,1.58,6.43,6.43,0,0,1,.26,1.86v.33l0,.35h-6.34a2.17,2.17,0,0,0,.77,1.34,2.33,2.33,0,0,0,1.46.45,2.81,2.81,0,0,0,1.15-.22,4.15,4.15,0,0,0,1.06-.72L763,38.66a4.63,4.63,0,0,1-1.57,1.25A4.84,4.84,0,0,1,759.26,40.36Zm1.67-5.47a2.47,2.47,0,0,0-.61-1.4A1.7,1.7,0,0,0,759,33a1.73,1.73,0,0,0-1.32.53,2.65,2.65,0,0,0-.65,1.41Z" style="fill:#fff"/><path d="M765.37,31.05H768v1.83A3.79,3.79,0,0,1,769,31.39a2.56,2.56,0,0,1,1.84-.51v2.7h-.14a2.66,2.66,0,0,0-2,.78,3.45,3.45,0,0,0-.74,2.43v3.37h-2.58Z" style="fill:#fff"/><path d="M776.79,40.36a5.17,5.17,0,0,1-1.9-.34,4.35,4.35,0,0,1-1.51-1,4.42,4.42,0,0,1-1-1.48,4.94,4.94,0,0,1-.36-1.92v0a5.13,5.13,0,0,1,.33-1.84,4.67,4.67,0,0,1,.93-1.51,4.3,4.3,0,0,1,1.42-1,4.36,4.36,0,0,1,1.82-.37,4.52,4.52,0,0,1,2,.4,4.15,4.15,0,0,1,1.38,1.1,4.66,4.66,0,0,1,.82,1.58,6.79,6.79,0,0,1,.26,1.86c0,.11,0,.21,0,.33s0,.23,0,.35H774.6a2.17,2.17,0,0,0,.77,1.34,2.32,2.32,0,0,0,1.45.45,2.86,2.86,0,0,0,1.16-.22,4,4,0,0,0,1-.72l1.48,1.31A4.5,4.5,0,0,1,779,39.91,4.84,4.84,0,0,1,776.79,40.36Zm1.67-5.47a2.48,2.48,0,0,0-.62-1.4,1.68,1.68,0,0,0-1.31-.54,1.72,1.72,0,0,0-1.31.53,2.58,2.58,0,0,0-.66,1.41Z" style="fill:#fff"/><path d="M786.63,40.33a3.89,3.89,0,0,1-1.54-.31,3.64,3.64,0,0,1-1.33-.91,4.35,4.35,0,0,1-.93-1.48,5.42,5.42,0,0,1-.35-2v0a5.52,5.52,0,0,1,.35-2,4.59,4.59,0,0,1,.92-1.48,3.86,3.86,0,0,1,1.32-.91,4.16,4.16,0,0,1,1.56-.3,3.28,3.28,0,0,1,1.71.4,4.45,4.45,0,0,1,1.13,1V27.75h2.59V40.16h-2.59V38.85a4.15,4.15,0,0,1-1.15,1.06A3.11,3.11,0,0,1,786.63,40.33Zm.67-2.19a2,2,0,0,0,.85-.18,2.07,2.07,0,0,0,.7-.51,2.54,2.54,0,0,0,.48-.8,2.86,2.86,0,0,0,.18-1v0a2.82,2.82,0,0,0-.18-1,2.54,2.54,0,0,0-.48-.8,2.07,2.07,0,0,0-.7-.51,2.12,2.12,0,0,0-1.71,0,2.21,2.21,0,0,0-.71.51,2.49,2.49,0,0,0-.48.79,2.8,2.8,0,0,0-.18,1v0a2.86,2.86,0,0,0,.18,1,2.54,2.54,0,0,0,.48.8,2.21,2.21,0,0,0,.71.51A2,2,0,0,0,787.3,38.14Z" style="fill:#fff"/></svg>