<svg xmlns="http://www.w3.org/2000/svg" viewBox="0 0 303.75 33.92"><path d="M24.29,11.73,22.43,22.19a7.42,7.42,0,0,1-7,6H4.2l4-22.42H19.38A4.89,4.89,0,0,1,24.29,11.73Zm-4.45.1a1.34,1.34,0,0,0-1.36-1.66H11.74l-2,11.42L7.19,23.78h8.9a2.09,2.09,0,0,0,2-1.66Z" style="fill:#333"/><path d="M42.52,14.75l-.8,4.42H30.5L30,22.12a1.36,1.36,0,0,0,1.36,1.66h9.56l-.76,4.39H30.53a4.92,4.92,0,0,1-5-6l1.86-10.46a7.47,7.47,0,0,1,7-6h9.63L42,10.17H33.75a2.09,2.09,0,0,0-2,1.66L30.9,17l2.62-2.23Z" style="fill:#333"/><path d="M49.29,28.17a4.92,4.92,0,0,1-4.95-6L47.26,5.75h4.39L48.76,22.12a1.36,1.36,0,0,0,1.36,1.66h6.77l.57,4.39Z" style="fill:#333"/><path d="M59.12,28.17l4-22.42h4.38l-4,22.42Z" style="fill:#333"/><path d="M87.94,5.75,78,28.17H71.33l-2-22.42h4.54l1.63,17.83L83.39,5.75Z" style="fill:#333"/><path d="M104.44,14.75l-.8,4.42H92.42l-.5,2.95a1.36,1.36,0,0,0,1.36,1.66h9.56l-.76,4.39H92.45a4.92,4.92,0,0,1-5-6l1.86-10.46a7.46,7.46,0,0,1,7-6H106l-2.13,4.42H95.67a2.08,2.08,0,0,0-2,1.66L92.81,17l2.63-2.23Z" style="fill:#333"/><path d="M119.11,28.17l-2.72-6.74H112.5L114.63,17h4.75a2,2,0,0,0,2-1.66l.6-3.52a1.34,1.34,0,0,0-1.36-1.66h-7.8l-3.16,18h-4.38l4-22.42h12.29a4.86,4.86,0,0,1,4.91,5.88v.1l-.66,3.72v.1a7.6,7.6,0,0,1-4.49,5.35l3,7.27Zm6.61-12.62v0Zm.66-3.82v0Z" style="fill:#333"/><path d="M144.81,14.75l-.8,4.42H132.79l-.5,2.95a1.36,1.36,0,0,0,1.36,1.66h9.56l-.76,4.39h-9.63a4.92,4.92,0,0,1-4.95-6l1.86-10.46a7.46,7.46,0,0,1,7-6h9.63l-2.12,4.42H136a2.08,2.08,0,0,0-2,1.66L133.19,17l2.62-2.23Z" style="fill:#333"/><path d="M165.69,11.73l-1.86,10.46a7.42,7.42,0,0,1-7,6H145.6l4-22.42h11.22A4.9,4.9,0,0,1,165.69,11.73Zm-4.45.1a1.34,1.34,0,0,0-1.36-1.66h-6.74l-2,11.42-2.52,2.19h8.9a2.09,2.09,0,0,0,2-1.66Z" style="fill:#333"/><path d="M196.4,11.73l-1.86,10.46a7.43,7.43,0,0,1-7,6h-5.64a4.92,4.92,0,0,1-4.95-6l1.86-10.46a7.46,7.46,0,0,1,7-6h5.64A4.9,4.9,0,0,1,196.4,11.73Zm-4.45.1a1.34,1.34,0,0,0-1.36-1.66h-5.48a2.08,2.08,0,0,0-2,1.66l-1.79,10.29a1.36,1.36,0,0,0,1.36,1.66h5.48a2.09,2.09,0,0,0,2-1.66Z" style="fill:#333"/><path d="M210.54,28.17l-2.72-6.74h-3.89L206.06,17h4.75a2.06,2.06,0,0,0,2-1.66l.59-3.52A1.34,1.34,0,0,0,212,10.17h-7.8l-3.15,18h-4.39l4-22.42H212.9a4.86,4.86,0,0,1,4.91,5.88v.1l-.66,3.72v.1a7.61,7.61,0,0,1-4.48,5.35l3,7.27Zm6.61-12.62v0Zm.66-3.82v0Z" style="fill:#333"/><path d="M238.36,11.73,236.5,22.19a7.41,7.41,0,0,1-7,6H218.28l3.95-22.42h11.22A4.89,4.89,0,0,1,238.36,11.73Zm-4.45.1a1.34,1.34,0,0,0-1.36-1.66h-6.74l-2,11.42-2.53,2.19h8.9a2.08,2.08,0,0,0,2-1.66Z" style="fill:#333"/><path d="M256.59,14.75l-.8,4.42H244.57l-.5,2.95a1.37,1.37,0,0,0,1.36,1.66H255l-.77,4.39H244.6a4.91,4.91,0,0,1-4.94-6l1.86-10.46a7.45,7.45,0,0,1,7-6h9.63l-2.12,4.42h-8.24a2.07,2.07,0,0,0-1.95,1.66L245,17l2.62-2.23Z" style="fill:#333"/><path d="M271.26,28.17l-2.72-6.74h-3.88L266.78,17h4.75a2.06,2.06,0,0,0,2-1.66l.6-3.52a1.35,1.35,0,0,0-1.37-1.66h-7.8l-3.15,18h-4.39l4-22.42h12.28a4.87,4.87,0,0,1,4.92,5.88v.1l-.67,3.72v.1a7.58,7.58,0,0,1-4.48,5.35l2.95,7.27Zm6.61-12.62v0Zm.67-3.82v0Z" style="fill:#333"/><path d="M298.29,22.19a7.43,7.43,0,0,1-7,6H279l2.09-4.39H292a2.09,2.09,0,0,0,2-1.66l.2-1.29a1.35,1.35,0,0,0-1.37-1.66h-6.21a4.9,4.9,0,0,1-4.91-6l.27-1.46a7.45,7.45,0,0,1,7-6h10.62l-2.12,4.42h-9.24a2.07,2.07,0,0,0-1.95,1.66l-.2,1.26a1.35,1.35,0,0,0,1.36,1.66h6.24a4.89,4.89,0,0,1,4.91,6Z" style="fill:#333"/></svg>