<svg xmlns="http://www.w3.org/2000/svg" viewBox="0 0 184.81 55.93"><path d="M167.46,35.58l14.25-16.2h-17.5l-5.75,6.35-5.75-6.35h-18.2l14.9,16.4L134.52,52V39.18H118.21v-6.9h16.3V19.38h-16.3v-5.1h16.3V1.38H92.37V23c-2.55-3-6.71-4.16-10.68-4.16C73,18.82,67,24.22,65.36,31.91c-1.82-8.15-8-13-17.58-13-7.64,0-13.65,3.34-16.51,9.21l0-7.22H15.51v-8.3H32.27V1.42H2.34V52.07H15.51V31.51H30a21.34,21.34,0,0,0-.59,5.06c0,11.42,8.2,17.62,19.16,17.62,7.55,0,15-3.55,16.84-11.36H54.16a5.85,5.85,0,0,1-5.61,3c-4.84,0-7.35-2.58-7.35-7.35h0l23.85,0c1,8.85,7.37,16.09,16.78,16.09,4,0,8.26-1.55,10.41-5h.13v2.48H152l6.2-6.6,6,6.6h18.26ZM41.39,31.72c.71-3.42,3.55-5.22,7-5.22A6.59,6.59,0,0,1,55,31.72Zm43.53,12.9c-5,0-7.86-4-7.86-8.4s2.88-8.3,7.86-8.3,7,4.07,7,8.3S89.89,44.62,84.92,44.62Zm47.29,5.16h-27.6V3.68h27.6V12h-16.3v9.7h16.3V30h-16.3v11.5h16.3Zm26.2-7.6-7.4,7.6h-11.4l13-14-12.8-14.1h11.8l6.9,7.65,7-7.65h11.3l-12.6,13.86,12.95,14.24H165.34Z" style="fill:#333"/></svg>