<?xml version="1.0" encoding="utf-8"?>
<!-- Generator: Adobe Illustrator 25.2.0, SVG Export Plug-In . SVG Version: 6.00 Build 0)  -->
<svg version="1.1" id="Layer_1" xmlns="http://www.w3.org/2000/svg" xmlns:xlink="http://www.w3.org/1999/xlink" x="0px" y="0px"
	 viewBox="0 0 200 200" style="enable-background:new 0 0 200 200;" xml:space="preserve">
<style type="text/css">
	.st0{fill:#333333;}
</style>
<path class="st0" d="M175.1,107.6l14.2-16.2h-17.5l-5.8,6.3l-5.8-6.3h-18.2l14.9,16.4L142.1,124v-12.8h-16.3v-6.9h16.3V91.4h-16.3
	v-5.1h16.3V73.4H100V95c-2.6-3-6.7-4.2-10.7-4.2c-8.7,0-14.7,5.4-16.3,13.1c-1.8-8.2-8-13-17.6-13c-7.6,0-13.7,3.3-16.5,9.2v-7.2
	H23.1v-8.3h16.8V73.4H9.9v50.7h13.2v-20.6h14.5c-0.4,1.7-0.6,3.4-0.6,5.1c0,11.4,8.2,17.6,19.2,17.6c7.5,0,15-3.6,16.8-11.4H61.8
	c-1.1,2-3.3,3.2-5.6,3c-4.8,0-7.3-2.6-7.3-7.3l0,0h23.9c1,8.8,7.4,16.1,16.8,16.1c4,0,8.3-1.5,10.4-5h0.1v2.5h59.6l6.2-6.6l6,6.6
	h18.3L175.1,107.6z M49,103.7c0.7-3.4,3.5-5.2,7-5.2c3.2-0.1,6,2.1,6.6,5.2H49z M92.5,116.6c-5,0-7.9-4-7.9-8.4
	c0-4.4,2.9-8.3,7.9-8.3s7,4.1,7,8.3C99.5,112.5,97.5,116.6,92.5,116.6z M139.8,121.8h-27.6V75.7h27.6V84h-16.3v9.7h16.3v8.3h-16.3
	v11.5h16.3V121.8z M166,114.2l-7.4,7.6h-11.4l13-14l-12.8-14.1h11.8l6.9,7.7l7-7.7h11.3l-12.6,13.9l12.9,14.2h-11.8L166,114.2z"/>
</svg>
