<?xml version="1.0" encoding="utf-8"?>
<!-- Generator: Adobe Illustrator 25.2.0, SVG Export Plug-In . SVG Version: 6.00 Build 0)  -->
<svg version="1.1" id="Layer_1" xmlns="http://www.w3.org/2000/svg" xmlns:xlink="http://www.w3.org/1999/xlink" x="0px" y="0px"
	 viewBox="0 0 850.7 68.8" style="enable-background:new 0 0 850.7 68.8;" xml:space="preserve">
<style type="text/css">
	.st0{fill:#FFFFFF;}
	.st1{fill:#BE696E;}
	.st2{enable-background:new    ;}
	.st3{fill:#FFC54E;}
	.st4{opacity:0.3;}
	.st5{fill:#8DBD5B;}
</style>
<g>
	<path class="st0" d="M585.9,0H252.5l39,31.5c1.7,1.4,2,3.9,0.6,5.6c-0.2,0.2-0.4,0.4-0.6,0.6l-38.3,31h333.5l42.1-34.1L585.9,0z"/>
</g>
<g>
	<path class="st0" d="M839.9,0H598.7l39,31.5c1.7,1.4,2,3.9,0.6,5.6c-0.2,0.2-0.4,0.4-0.6,0.6l-38.3,31h240.5
		c5.9,0,10.8-4.8,10.8-10.8V10.7C850.7,4.8,845.9,0,839.9,0z"/>
</g>
<g>
	<path class="st1" d="M239.8,0H10.7C4.8,0,0,4.8,0,10.7v47.3C0,64,4.8,68.8,10.7,68.8c0,0,0,0,0,0h229.8l42.1-34.1L239.8,0z"/>
</g>
<g class="st2">
	<path class="st0" d="M89.4,28.3h4.9c0.7,0,1.4,0.1,1.9,0.3c0.6,0.2,1,0.5,1.4,0.8c0.4,0.4,0.7,0.8,0.9,1.3c0.2,0.5,0.3,1.1,0.3,1.7
		v0c0,0.7-0.1,1.3-0.4,1.8s-0.6,1-1,1.3s-0.9,0.6-1.5,0.8c-0.6,0.2-1.2,0.3-1.9,0.3h-2v3.6h-2.6V28.3z M94.1,34.3
		c0.7,0,1.2-0.2,1.5-0.5c0.4-0.3,0.5-0.8,0.5-1.3v0c0-0.6-0.2-1-0.6-1.3s-0.9-0.5-1.6-0.5h-2v3.6H94.1z"/>
	<path class="st0" d="M100.6,27.8h2.6v12.4h-2.6V27.8z"/>
	<path class="st0" d="M108.2,40.3c-0.4,0-0.8-0.1-1.2-0.2s-0.7-0.3-1-0.5s-0.5-0.5-0.7-0.9c-0.2-0.3-0.2-0.7-0.2-1.2v0
		c0-0.5,0.1-0.9,0.3-1.3c0.2-0.4,0.4-0.7,0.8-0.9c0.3-0.2,0.7-0.4,1.2-0.5c0.4-0.1,0.9-0.2,1.5-0.2c0.5,0,0.9,0,1.2,0.1
		s0.7,0.2,1,0.3v-0.2c0-0.5-0.2-1-0.5-1.2c-0.3-0.3-0.8-0.4-1.5-0.4c-0.5,0-0.9,0-1.3,0.1c-0.4,0.1-0.8,0.2-1.2,0.4l-0.6-2
		c0.5-0.2,1-0.4,1.6-0.5c0.5-0.1,1.2-0.2,2-0.2c0.7,0,1.3,0.1,1.8,0.3c0.5,0.2,0.9,0.4,1.2,0.8c0.3,0.3,0.6,0.8,0.7,1.2
		c0.2,0.5,0.2,1,0.2,1.7v5.3H111v-1c-0.3,0.4-0.7,0.6-1.1,0.8C109.4,40.2,108.9,40.3,108.2,40.3z M109,38.5c0.6,0,1.1-0.1,1.5-0.4
		c0.4-0.3,0.6-0.7,0.6-1.2v-0.5c-0.2-0.1-0.5-0.2-0.8-0.2c-0.3-0.1-0.6-0.1-0.9-0.1c-0.6,0-1,0.1-1.3,0.3c-0.3,0.2-0.5,0.5-0.5,0.9
		v0c0,0.4,0.1,0.6,0.4,0.8C108.2,38.4,108.6,38.5,109,38.5z"/>
	<path class="st0" d="M120,40.4c-0.7,0-1.3-0.1-1.9-0.4c-0.6-0.2-1.1-0.6-1.5-1s-0.7-0.9-1-1.5c-0.2-0.6-0.4-1.2-0.4-1.8v0
		c0-0.6,0.1-1.3,0.4-1.8c0.2-0.6,0.6-1.1,1-1.5s0.9-0.8,1.5-1c0.6-0.2,1.2-0.4,1.9-0.4c0.9,0,1.6,0.1,2.1,0.4
		c0.6,0.3,1.1,0.6,1.5,1.1l-1.6,1.7c-0.3-0.3-0.6-0.5-0.9-0.7c-0.3-0.2-0.7-0.3-1.2-0.3c-0.3,0-0.6,0.1-0.9,0.2s-0.5,0.3-0.7,0.5
		c-0.2,0.2-0.4,0.5-0.5,0.8c-0.1,0.3-0.2,0.6-0.2,1v0c0,0.4,0.1,0.7,0.2,1c0.1,0.3,0.3,0.6,0.5,0.8s0.4,0.4,0.7,0.5
		c0.3,0.1,0.6,0.2,1,0.2c0.4,0,0.8-0.1,1.1-0.3s0.6-0.4,1-0.7l1.5,1.5c-0.4,0.5-0.9,0.9-1.5,1.2C121.6,40.2,120.9,40.4,120,40.4z"/>
	<path class="st0" d="M129.7,40.4c-0.7,0-1.3-0.1-1.9-0.3s-1.1-0.5-1.5-1c-0.4-0.4-0.8-0.9-1-1.5c-0.2-0.6-0.4-1.2-0.4-1.9v0
		c0-0.6,0.1-1.3,0.3-1.8c0.2-0.6,0.5-1.1,0.9-1.5s0.9-0.8,1.4-1c0.5-0.2,1.2-0.4,1.8-0.4c0.8,0,1.4,0.1,2,0.4c0.6,0.3,1,0.6,1.4,1.1
		s0.6,1,0.8,1.6c0.2,0.6,0.3,1.2,0.3,1.9c0,0.1,0,0.2,0,0.3s0,0.2,0,0.4h-6.3c0.1,0.6,0.4,1,0.8,1.3c0.4,0.3,0.9,0.5,1.5,0.5
		c0.4,0,0.8-0.1,1.2-0.2s0.7-0.4,1.1-0.7l1.5,1.3c-0.4,0.5-1,0.9-1.6,1.2C131.3,40.2,130.6,40.4,129.7,40.4z M131.4,34.9
		c-0.1-0.6-0.3-1-0.6-1.4c-0.3-0.4-0.8-0.5-1.3-0.5s-1,0.2-1.3,0.5c-0.3,0.4-0.6,0.8-0.7,1.4H131.4z"/>
	<path class="st0" d="M139.6,40.3c-0.5,0-1-0.1-1.5-0.3s-0.9-0.5-1.3-0.9c-0.4-0.4-0.7-0.9-0.9-1.5c-0.2-0.6-0.3-1.3-0.3-2v0
		c0-0.8,0.1-1.4,0.3-2c0.2-0.6,0.5-1.1,0.9-1.5c0.4-0.4,0.8-0.7,1.3-0.9c0.5-0.2,1-0.3,1.6-0.3c0.7,0,1.3,0.1,1.7,0.4
		c0.4,0.3,0.8,0.6,1.1,1v-4.5h2.6v12.4h-2.6v-1.3c-0.3,0.4-0.7,0.8-1.1,1.1C140.8,40.2,140.2,40.3,139.6,40.3z M140.2,38.1
		c0.3,0,0.6-0.1,0.9-0.2s0.5-0.3,0.7-0.5c0.2-0.2,0.4-0.5,0.5-0.8c0.1-0.3,0.2-0.7,0.2-1v0c0-0.4-0.1-0.7-0.2-1
		c-0.1-0.3-0.3-0.6-0.5-0.8s-0.4-0.4-0.7-0.5s-0.6-0.2-0.9-0.2c-0.3,0-0.6,0.1-0.9,0.2s-0.5,0.3-0.7,0.5s-0.4,0.5-0.5,0.8
		c-0.1,0.3-0.2,0.7-0.2,1v0c0,0.4,0.1,0.7,0.2,1c0.1,0.3,0.3,0.6,0.5,0.8c0.2,0.2,0.4,0.4,0.7,0.5S139.9,38.1,140.2,38.1z"/>
</g>
<g>
	<path class="st3" d="M585.9,0H252.5l39,31.5c1.7,1.4,2,3.9,0.6,5.6c-0.2,0.2-0.4,0.4-0.6,0.6l-38.3,31h333.5l42.1-34.1L585.9,0z"/>
</g>
<g class="st2">
	<path class="st0" d="M391.8,28.3h2.6v11.9h-2.6V28.3z"/>
	<path class="st0" d="M397.1,31h2.6v1.3c0.1-0.2,0.3-0.4,0.5-0.6c0.2-0.2,0.4-0.3,0.6-0.5c0.2-0.1,0.5-0.2,0.7-0.3s0.6-0.1,0.9-0.1
		c1,0,1.7,0.3,2.3,0.9c0.5,0.6,0.8,1.4,0.8,2.5v5.9h-2.6v-5.1c0-0.6-0.1-1.1-0.4-1.4c-0.3-0.3-0.7-0.5-1.2-0.5
		c-0.5,0-0.9,0.2-1.2,0.5c-0.3,0.3-0.4,0.8-0.4,1.4v5.1h-2.6V31z"/>
	<path class="st0" d="M415.9,30.7h-3.6v-2.4h9.9v2.4h-3.6v9.5h-2.6V30.7z"/>
	<path class="st0" d="M423.8,31h2.6v1.8c0.3-0.6,0.6-1.1,1.1-1.5c0.5-0.4,1.1-0.5,1.8-0.5v2.7h-0.1c-0.9,0-1.5,0.3-2,0.8
		c-0.5,0.5-0.7,1.3-0.7,2.4v3.4h-2.6V31z"/>
	<path class="st0" d="M433.5,40.3c-0.4,0-0.8-0.1-1.2-0.2s-0.7-0.3-1-0.5s-0.5-0.5-0.7-0.9c-0.2-0.3-0.2-0.7-0.2-1.2v0
		c0-0.5,0.1-0.9,0.3-1.3c0.2-0.4,0.4-0.7,0.8-0.9c0.3-0.2,0.7-0.4,1.2-0.5c0.4-0.1,0.9-0.2,1.5-0.2c0.5,0,0.9,0,1.2,0.1
		s0.7,0.2,1,0.3v-0.2c0-0.5-0.2-1-0.5-1.2c-0.3-0.3-0.8-0.4-1.5-0.4c-0.5,0-0.9,0-1.3,0.1c-0.4,0.1-0.8,0.2-1.2,0.4l-0.6-2
		c0.5-0.2,1-0.4,1.6-0.5c0.5-0.1,1.2-0.2,2-0.2c0.7,0,1.3,0.1,1.8,0.3c0.5,0.2,0.9,0.4,1.2,0.8c0.3,0.3,0.6,0.8,0.7,1.2
		s0.2,1,0.2,1.7v5.3h-2.5v-1c-0.3,0.4-0.7,0.6-1.1,0.8C434.7,40.2,434.1,40.3,433.5,40.3z M434.3,38.5c0.6,0,1.1-0.1,1.5-0.4
		c0.4-0.3,0.6-0.7,0.6-1.2v-0.5c-0.2-0.1-0.5-0.2-0.8-0.2c-0.3-0.1-0.6-0.1-0.9-0.1c-0.6,0-1,0.1-1.3,0.3c-0.3,0.2-0.5,0.5-0.5,0.9
		v0c0,0.4,0.1,0.6,0.4,0.8C433.5,38.4,433.9,38.5,434.3,38.5z"/>
	<path class="st0" d="M441,31h2.6v1.3c0.1-0.2,0.3-0.4,0.5-0.6c0.2-0.2,0.4-0.3,0.6-0.5c0.2-0.1,0.5-0.2,0.7-0.3s0.6-0.1,0.9-0.1
		c1,0,1.7,0.3,2.3,0.9c0.5,0.6,0.8,1.4,0.8,2.5v5.9h-2.6v-5.1c0-0.6-0.1-1.1-0.4-1.4c-0.3-0.3-0.7-0.5-1.2-0.5
		c-0.5,0-0.9,0.2-1.2,0.5c-0.3,0.3-0.4,0.8-0.4,1.4v5.1H441V31z"/>
	<path class="st0" d="M454.8,40.3c-0.6,0-1.3-0.1-2-0.3c-0.7-0.2-1.3-0.6-1.9-1l1.1-1.7c0.5,0.4,1,0.6,1.5,0.8s1,0.3,1.4,0.3
		c0.4,0,0.6-0.1,0.8-0.2s0.3-0.3,0.3-0.5v0c0-0.1-0.1-0.3-0.2-0.4c-0.1-0.1-0.2-0.2-0.4-0.3c-0.2-0.1-0.4-0.1-0.6-0.2
		c-0.2-0.1-0.5-0.1-0.7-0.2c-0.3-0.1-0.6-0.2-1-0.3c-0.3-0.1-0.6-0.3-0.9-0.5c-0.3-0.2-0.5-0.5-0.6-0.8s-0.2-0.7-0.2-1.1v0
		c0-0.5,0.1-0.9,0.3-1.2c0.2-0.4,0.4-0.7,0.7-0.9s0.7-0.4,1.1-0.6c0.4-0.1,0.8-0.2,1.3-0.2c0.6,0,1.2,0.1,1.8,0.3
		c0.6,0.2,1.1,0.4,1.6,0.8l-1,1.8c-0.5-0.3-0.9-0.5-1.3-0.6c-0.4-0.2-0.8-0.2-1.1-0.2c-0.3,0-0.6,0.1-0.7,0.2
		c-0.2,0.1-0.2,0.3-0.2,0.5v0c0,0.1,0.1,0.2,0.2,0.3c0.1,0.1,0.2,0.2,0.4,0.3s0.4,0.2,0.6,0.2s0.5,0.2,0.7,0.2
		c0.3,0.1,0.6,0.2,1,0.4c0.3,0.1,0.6,0.3,0.9,0.5s0.5,0.5,0.6,0.7s0.3,0.7,0.3,1.1v0c0,0.5-0.1,1-0.3,1.3c-0.2,0.4-0.4,0.7-0.7,0.9
		c-0.3,0.2-0.7,0.4-1.1,0.5C455.7,40.3,455.3,40.3,454.8,40.3z"/>
	<path class="st0" d="M460.2,27.8h2.7V30h-2.7V27.8z M460.2,31h2.6v9.1h-2.6V31z"/>
	<path class="st0" d="M468.3,40.3c-0.4,0-0.8,0-1.1-0.1c-0.3-0.1-0.6-0.2-0.8-0.5c-0.2-0.2-0.4-0.5-0.5-0.8s-0.2-0.8-0.2-1.3v-4.3
		h-1.1V31h1.1v-2.3h2.6V31h2.1v2.2h-2.1v3.9c0,0.6,0.3,0.9,0.8,0.9c0.5,0,0.9-0.1,1.3-0.3v2.1c-0.3,0.2-0.6,0.3-0.9,0.4
		C469.1,40.3,468.8,40.3,468.3,40.3z"/>
</g>
<g class="st4">
	<g>
		<path class="st5" d="M839.9,0H598.7l39,31.5c1.7,1.4,2,3.9,0.6,5.6c-0.2,0.2-0.4,0.4-0.6,0.6l-38.3,31h240.5
			c5.9,0,10.8-4.8,10.8-10.8V10.7C850.7,4.8,845.9,0,839.9,0z"/>
	</g>
	<g class="st2">
		<path class="st0" d="M711,28.3h4.6c0.9,0,1.8,0.2,2.6,0.5c0.8,0.3,1.4,0.7,2,1.2c0.6,0.5,1,1.2,1.3,1.9c0.3,0.7,0.5,1.5,0.5,2.3v0
			c0,0.8-0.2,1.6-0.5,2.3c-0.3,0.7-0.7,1.4-1.3,1.9c-0.6,0.5-1.2,1-2,1.3s-1.6,0.5-2.6,0.5H711V28.3z M715.7,37.8
			c0.5,0,1-0.1,1.5-0.3c0.4-0.2,0.8-0.4,1.1-0.7s0.6-0.7,0.7-1.1c0.2-0.4,0.3-0.9,0.3-1.4v0c0-0.5-0.1-1-0.3-1.4
			c-0.2-0.4-0.4-0.8-0.7-1.1s-0.7-0.6-1.1-0.7c-0.4-0.2-0.9-0.3-1.5-0.3h-2v7.2H715.7z"/>
		<path class="st0" d="M728.4,40.4c-0.7,0-1.3-0.1-1.9-0.3s-1.1-0.5-1.5-1c-0.4-0.4-0.8-0.9-1-1.5c-0.2-0.6-0.4-1.2-0.4-1.9v0
			c0-0.6,0.1-1.3,0.3-1.8c0.2-0.6,0.5-1.1,0.9-1.5s0.9-0.8,1.4-1c0.5-0.2,1.2-0.4,1.8-0.4c0.8,0,1.4,0.1,2,0.4
			c0.6,0.3,1,0.6,1.4,1.1s0.6,1,0.8,1.6c0.2,0.6,0.3,1.2,0.3,1.9c0,0.1,0,0.2,0,0.3s0,0.2,0,0.4h-6.3c0.1,0.6,0.4,1,0.8,1.3
			c0.4,0.3,0.9,0.5,1.5,0.5c0.4,0,0.8-0.1,1.2-0.2s0.7-0.4,1.1-0.7l1.5,1.3c-0.4,0.5-1,0.9-1.6,1.2
			C729.9,40.2,729.2,40.4,728.4,40.4z M730,34.9c-0.1-0.6-0.3-1-0.6-1.4c-0.3-0.4-0.8-0.5-1.3-0.5s-1,0.2-1.3,0.5
			c-0.3,0.4-0.6,0.8-0.7,1.4H730z"/>
		<path class="st0" d="M734.6,27.8h2.6v12.4h-2.6V27.8z"/>
		<path class="st0" d="M739.7,27.8h2.7V30h-2.7V27.8z M739.7,31h2.6v9.1h-2.6V31z"/>
		<path class="st0" d="M743.9,31h2.7l2,6.1l2.1-6.1h2.7l-3.6,9.2h-2.3L743.9,31z"/>
		<path class="st0" d="M759.3,40.4c-0.7,0-1.3-0.1-1.9-0.3c-0.6-0.2-1.1-0.5-1.5-1c-0.4-0.4-0.8-0.9-1-1.5s-0.4-1.2-0.4-1.9v0
			c0-0.6,0.1-1.3,0.3-1.8s0.5-1.1,0.9-1.5c0.4-0.4,0.9-0.8,1.4-1c0.5-0.2,1.2-0.4,1.8-0.4c0.8,0,1.4,0.1,2,0.4
			c0.6,0.3,1,0.6,1.4,1.1c0.4,0.5,0.6,1,0.8,1.6s0.3,1.2,0.3,1.9c0,0.1,0,0.2,0,0.3s0,0.2,0,0.4h-6.3c0.1,0.6,0.4,1,0.8,1.3
			c0.4,0.3,0.9,0.5,1.5,0.5c0.4,0,0.8-0.1,1.2-0.2s0.7-0.4,1.1-0.7l1.5,1.3c-0.4,0.5-1,0.9-1.6,1.2
			C760.8,40.2,760.1,40.4,759.3,40.4z M760.9,34.9c-0.1-0.6-0.3-1-0.6-1.4c-0.3-0.4-0.8-0.5-1.3-0.5c-0.5,0-1,0.2-1.3,0.5
			c-0.3,0.4-0.6,0.8-0.7,1.4H760.9z"/>
		<path class="st0" d="M765.4,31h2.6v1.8c0.3-0.6,0.6-1.1,1.1-1.5c0.5-0.4,1.1-0.5,1.8-0.5v2.7h-0.1c-0.9,0-1.5,0.3-2,0.8
			s-0.7,1.3-0.7,2.4v3.4h-2.6V31z"/>
		<path class="st0" d="M776.8,40.4c-0.7,0-1.3-0.1-1.9-0.3s-1.1-0.5-1.5-1c-0.4-0.4-0.8-0.9-1-1.5c-0.2-0.6-0.4-1.2-0.4-1.9v0
			c0-0.6,0.1-1.3,0.3-1.8c0.2-0.6,0.5-1.1,0.9-1.5s0.9-0.8,1.4-1c0.5-0.2,1.2-0.4,1.8-0.4c0.8,0,1.4,0.1,2,0.4
			c0.6,0.3,1,0.6,1.4,1.1s0.6,1,0.8,1.6c0.2,0.6,0.3,1.2,0.3,1.9c0,0.1,0,0.2,0,0.3s0,0.2,0,0.4h-6.3c0.1,0.6,0.4,1,0.8,1.3
			c0.4,0.3,0.9,0.5,1.5,0.5c0.4,0,0.8-0.1,1.2-0.2s0.7-0.4,1.1-0.7l1.5,1.3c-0.4,0.5-1,0.9-1.6,1.2
			C778.3,40.2,777.6,40.4,776.8,40.4z M778.5,34.9c-0.1-0.6-0.3-1-0.6-1.4c-0.3-0.4-0.8-0.5-1.3-0.5s-1,0.2-1.3,0.5
			c-0.3,0.4-0.6,0.8-0.7,1.4H778.5z"/>
		<path class="st0" d="M786.6,40.3c-0.5,0-1-0.1-1.5-0.3s-0.9-0.5-1.3-0.9c-0.4-0.4-0.7-0.9-0.9-1.5c-0.2-0.6-0.3-1.3-0.3-2v0
			c0-0.8,0.1-1.4,0.3-2c0.2-0.6,0.5-1.1,0.9-1.5c0.4-0.4,0.8-0.7,1.3-0.9c0.5-0.2,1-0.3,1.6-0.3c0.7,0,1.3,0.1,1.7,0.4
			c0.4,0.3,0.8,0.6,1.1,1v-4.5h2.6v12.4h-2.6v-1.3c-0.3,0.4-0.7,0.8-1.1,1.1C787.9,40.2,787.3,40.3,786.6,40.3z M787.3,38.1
			c0.3,0,0.6-0.1,0.9-0.2s0.5-0.3,0.7-0.5c0.2-0.2,0.4-0.5,0.5-0.8c0.1-0.3,0.2-0.7,0.2-1v0c0-0.4-0.1-0.7-0.2-1
			c-0.1-0.3-0.3-0.6-0.5-0.8s-0.4-0.4-0.7-0.5s-0.6-0.2-0.9-0.2c-0.3,0-0.6,0.1-0.9,0.2s-0.5,0.3-0.7,0.5s-0.4,0.5-0.5,0.8
			c-0.1,0.3-0.2,0.7-0.2,1v0c0,0.4,0.1,0.7,0.2,1c0.1,0.3,0.3,0.6,0.5,0.8c0.2,0.2,0.4,0.4,0.7,0.5S787,38.1,787.3,38.1z"/>
	</g>
</g>
</svg>
