<svg xmlns="http://www.w3.org/2000/svg" viewBox="0 0 350 350"><path d="M318,85.16l-.76-.7a9,9,0,0,0-12.62.42c-8.88,9.35-18.86,18.11-28.51,26.59-6.82,6-13.81,12.14-20.58,18.61-2.18-1.71-4.27-3.26-6.33-4.69a8.74,8.74,0,0,0-6.5-1.49,9,9,0,0,0-3.14-2.74L231,116.69l-8.69-4.49a44.2,44.2,0,0,0,6.53-4.28c12.89-10.29,18.49-23.49,16.2-38.2a43.67,43.67,0,0,0-15.32-27.07,45.94,45.94,0,0,0-29.21-10.28H200a47.32,47.32,0,0,0-19.86,4.73,42.59,42.59,0,0,0-23,26.25,39.81,39.81,0,0,0,1.47,27.08l-17.3-3.31a8.89,8.89,0,0,0-1.7-.16,9,9,0,0,0-3.87.88,5.45,5.45,0,0,0-.58-.14c-4.43-.85-8.94-1.61-13.41-2.25a49.24,49.24,0,0,0-7.15-.54A35.52,35.52,0,0,0,85.22,99.27c-.55.71-1.12,1.41-1.68,2.11-1.17,1.44-2.38,2.93-3.54,4.59-13.62,18.85-20.12,40.35-26.4,61.15l-.92,3a9.72,9.72,0,0,0,.15,7.4,10.28,10.28,0,0,0,6.67,5.73,8.84,8.84,0,0,0,2.63.4,9,9,0,0,0,7.44-3.95c7.4-10.88,15.75-20.91,24.59-31.53,6.18-7.43,12.53-15.06,18.59-23.07,1.25.73,2.49,1.44,3.77,2.14A99.09,99.09,0,0,0,140.06,137l-5.88,10.68-3.67,6.66a8.87,8.87,0,0,0-1.09,4.3,9,9,0,0,0-4.14,4.86,33.44,33.44,0,0,0-1.81,13.81c-.62.78-1.25,1.57-1.86,2.38Q77.75,237.83,33.92,296a20.8,20.8,0,0,0-4.83,12.08,9,9,0,0,0,14.33,7.79c20-14.8,38.58-31.7,56.5-48L106.3,262l5.9-5.36c16.61-15.06,33.73-30.59,49.54-47.53,4.92,2.1,9.87,3.67,14.71,5.21l.92.29c-7.87,10.15-15.38,20.56-22.79,31.55-8.6,12.76-18.12,24.83-28.19,37.59l-2,2.53a9,9,0,0,0,6.74,14.57h.59a16.5,16.5,0,0,0,10.19-3.53c6.63-4.53,13.33-9.13,19.93-13.7,18.77-12.94,36.89-26,52.16-42.84A107.37,107.37,0,0,0,229.8,219a.75.75,0,0,0,.07-.12c5.12-9.69,4.29-19.59-2.4-28.63a54.71,54.71,0,0,0-8.64-9.23c-2.86-2.42-5.84-4.81-9.13-7.33a8.89,8.89,0,0,0-1.88-1.1l2.8-16.93c9.84,4.85,20.88,8.73,34.62,12.15A35.92,35.92,0,0,0,254,169c8.8,0,17-3.41,24.49-10.14a126.9,126.9,0,0,0,12.73-13.09l0,0c11-13.32,18.53-28.49,25.76-43.17l2.55-5.16a7.53,7.53,0,0,0,.38-.88,16.73,16.73,0,0,0,.87-3.41A9,9,0,0,0,318,85.16Z" style="fill:#333"/><path d="M171.64,94.91h.11l32.77-32.36,5.63,44.79a35.05,35.05,0,0,0,13.06-6.48c9.5-7.57,14.79-17.54,12.89-29.76-2.77-17.85-18-29.92-36.06-29.73A38.06,38.06,0,0,0,184,45.22C165.72,53.71,159,75,169.28,91.56A35.43,35.43,0,0,0,171.64,94.91Z" style="fill:#fffffa"/><path d="M62.13,174.7c14.5-21.34,32.84-39.85,48.17-61.43,3.74,2.18,7.11,4.24,10.57,6.15,9.28,5.1,18.91,9,29.22,10.31L133.45,96.54q-6.48-1.25-13-2.18c-11.28-1.64-20.9,1.13-28.12,10.43-1.66,2.14-3.46,4.2-5,6.4-13.48,18.64-19.61,40.4-26.16,62C61,173.62,60.79,174.29,62.13,174.7Z" style="fill:#fffffa"/><path d="M311.16,91.08c-17.2,18.1-37.23,33.07-54.88,50.88-1.56-1.16-3-2.12-4.27-3.18-2.58-2.1-5.22-4.12-7.93-6l-30.52,14.34c10.72,5.41,22.14,9.08,33.85,12,9.62,2.41,17.87-.48,25.08-7a117.49,117.49,0,0,0,11.85-12.18c11.61-14,19.16-30.46,27.18-46.59a7.1,7.1,0,0,0,.4-1.57Z" style="fill:#fffffa"/><polygon points="154.22 125.11 155.47 127.61 154.13 130.07 142.06 151.97 138.4 158.63 163.53 154.82 170.63 153.74 173.41 153.32 175.32 155.36 184.35 164.99 197.63 179.14 198.43 174.31 202.94 146.97 203.4 144.2 205.93 143.01 206.24 142.87 235.44 129.15 226.81 124.68 206.47 114.16 204 112.87 203.65 110.09 203.56 109.52 199.57 77.74 176.38 100.65 176.28 100.75 174.38 102.62 171.63 102.09 161.54 100.16 139.59 95.96 152.74 122.16 154.22 125.11" style="fill:#fffffa"/><path d="M220.23,195.65a45.13,45.13,0,0,0-7.22-7.72c-2.87-2.43-5.79-4.77-8.78-7.05L202,194.46l-31.5-33.59-36.72,5.57a25.09,25.09,0,0,0-.86,13.47c-1.43,1.79-2.82,3.44-4.13,5.16L40.94,301.63a11.78,11.78,0,0,0-2.87,7c22-16.24,42-34.93,62.17-53.27s40.82-36.67,59.37-57.22c10.29,5.59,21.73,7.71,32.65,12.17-10.91,13.47-20.85,27-30.22,40.9s-19.81,27-30.58,40.66a7.44,7.44,0,0,0,5.08-1.75q10.11-6.9,20.19-13.87c18-12.42,35.86-25.17,50.66-41.54a98.46,98.46,0,0,0,14.52-20C225.51,207.9,224.72,201.71,220.23,195.65Z" style="fill:#fffffa"/></svg>