<svg xmlns="http://www.w3.org/2000/svg" viewBox="0 0 350 350"><rect width="350" height="350" rx="40.6" style="fill:#333"/><path d="M171.46,90.57h.12l34.55-34.11,5.93,47.21a36.79,36.79,0,0,0,13.77-6.83c10-8,15.59-18.49,13.59-31.37-2.92-18.82-19-31.54-38-31.34a40,40,0,0,0-17,4.06C165.22,47.14,158.1,69.58,169,87A34.46,34.46,0,0,0,171.46,90.57Z" style="fill:#fffffa"/><path d="M56,174.68c15.29-22.5,34.62-42,50.78-64.76,3.95,2.3,7.5,4.47,11.15,6.48,9.78,5.38,19.93,9.49,30.8,10.87l-17.54-35c-4.56-.87-9.12-1.63-13.71-2.3-11.89-1.72-22,1.2-29.64,11-1.75,2.26-3.65,4.43-5.27,6.75C68.37,127.38,61.91,150.32,55,173.09,54.78,173.54,54.6,174.25,56,174.68Z" style="fill:#fffffa"/><path d="M318.54,86.53c-18.13,19.08-39.24,34.87-57.85,53.64-1.64-1.22-3.16-2.23-4.5-3.35-2.72-2.22-5.5-4.35-8.36-6.33l-32.17,15.12c11.3,5.7,23.34,9.57,35.68,12.65,10.14,2.54,18.84-.51,26.44-7.38A123.13,123.13,0,0,0,290.27,138c12.24-14.76,20.2-32.11,28.65-49.11a8.62,8.62,0,0,0,.43-1.66Z" style="fill:#fffffa"/><polygon points="153.09 122.41 154.42 125.04 152.99 127.64 140.28 150.72 136.41 157.74 162.9 153.73 170.4 152.59 173.32 152.15 175.34 154.3 184.86 164.45 198.85 179.37 199.69 174.27 204.45 145.45 204.93 142.53 207.6 141.28 207.93 141.13 238.71 126.67 229.62 121.95 208.18 110.86 205.57 109.5 205.2 106.57 205.11 105.97 200.91 72.47 176.45 96.62 176.34 96.73 174.34 98.7 171.44 98.14 160.82 96.11 137.68 91.68 151.53 119.3 153.09 122.41" style="fill:#fffffa"/><path d="M222.69,196.77a48.52,48.52,0,0,0-7.61-8.14q-4.54-3.84-9.26-7.43l-2.36,14.32-33.21-35.41L131.53,166a26.59,26.59,0,0,0-.91,14.2c-1.5,1.88-3,3.62-4.34,5.44Q80,247,33.68,308.49a12.46,12.46,0,0,0-3,7.38c23.2-17.12,44.28-36.82,65.54-56.15s43-38.66,62.59-60.32c10.85,5.89,22.91,8.12,34.42,12.82-11.5,14.2-22,28.47-31.86,43.12s-20.88,28.46-32.23,42.87a7.9,7.9,0,0,0,5.35-1.85q10.66-7.28,21.29-14.62c19-13.09,37.79-26.54,53.4-43.79a103.78,103.78,0,0,0,15.31-21.09C228.25,209.68,227.42,203.16,222.69,196.77Z" style="fill:#fffffa"/></svg>