<svg xmlns="http://www.w3.org/2000/svg" viewBox="0 0 347.19 362.62"><path d="M211.61,194.24c-2.87-2.43-5.8-4.77-8.78-7.05l-2.24,13.58-31.5-33.59-42.25,6.41a13,13,0,0,0,1.39,6.8c1,2,2.17,3.89,3.27,5.83-1.43,1.79-2.82,3.44-4.12,5.16Q83.45,249.65,39.54,307.94a11.75,11.75,0,0,0-2.87,7c22-16.24,42-34.93,62.17-53.27s40.82-36.67,59.37-57.22c10.29,5.59,21.73,7.71,32.65,12.17-10.91,13.47-20.85,27-30.22,40.9s-19.81,27-30.58,40.66a7.48,7.48,0,0,0,5.08-1.75q10.11-6.9,20.19-13.87c18-12.42,35.85-25.17,50.66-41.54a98.58,98.58,0,0,0,14.52-20c3.6-6.81,2.81-13-1.68-19.06A45.41,45.41,0,0,0,211.61,194.24Z" style="fill:#fffffa"/><path d="M170.24,101.22h.11l32.77-32.36,5.63,44.79a35.05,35.05,0,0,0,13.06-6.48c9.49-7.57,14.79-17.54,12.89-29.76-2.77-17.85-18-29.92-36.06-29.73a38,38,0,0,0-16.08,3.85c-18.24,8.49-25,29.78-14.68,46.34A33.69,33.69,0,0,0,170.24,101.22Z" style="fill:#fffffa"/><path d="M54.75,172.64c14.5-21.34,32.84-39.85,48.17-61.43,3.74,2.18,7.11,4.24,10.57,6.15,9.28,5.1,18.91,9,29.22,10.31L126.07,94.48q-6.48-1.24-13-2.18c-11.28-1.64-20.9,1.13-28.12,10.43-1.66,2.14-3.46,4.2-5,6.4-13.48,18.64-19.61,40.4-26.16,62C53.58,171.56,53.41,172.23,54.75,172.64Z" style="fill:#fffffa"/><path d="M309.76,97.39c-17.2,18.1-37.23,33.07-54.88,50.88-1.56-1.16-3-2.12-4.27-3.18-2.58-2.1-5.22-4.12-7.93-6l-30.52,14.34c10.72,5.41,22.14,9.08,33.85,12,9.62,2.41,17.87-.48,25.08-7a117.49,117.49,0,0,0,11.85-12.18c11.61-14,19.16-30.46,27.18-46.59a7.7,7.7,0,0,0,.4-1.57Z" style="fill:#fffffa"/><polygon points="152.81 131.42 154.07 133.92 152.72 136.38 140.66 158.28 136.99 164.94 162.12 161.13 169.23 160.05 172 159.63 173.92 161.67 182.95 171.3 196.22 185.45 197.02 180.62 201.53 153.28 201.99 150.51 204.52 149.32 204.83 149.18 234.03 135.46 225.41 130.99 205.07 120.47 202.59 119.18 202.24 116.4 202.16 115.83 198.17 84.05 174.97 106.96 174.87 107.06 172.97 108.93 170.22 108.4 160.14 106.47 138.19 102.27 151.33 128.47 152.81 131.42" style="fill:#fffffa"/></svg>