<svg xmlns="http://www.w3.org/2000/svg" viewBox="0 0 350 350"><path d="M171.65,94.91h.11l32.77-32.36,5.63,44.79a35.2,35.2,0,0,0,13.06-6.48c9.49-7.57,14.79-17.54,12.89-29.76-2.77-17.85-18-29.92-36.06-29.73A38,38,0,0,0,184,45.22C165.73,53.71,159,75,169.29,91.56A32.12,32.12,0,0,0,171.65,94.91Z" style="fill:#ffc54e"/><path d="M62.13,174.7c14.5-21.34,32.84-39.85,48.17-61.43,3.74,2.18,7.11,4.24,10.57,6.15,9.28,5.1,18.91,9,29.22,10.31L133.45,96.54q-6.48-1.25-13-2.18c-11.28-1.64-20.9,1.13-28.12,10.43-1.66,2.14-3.46,4.2-5,6.4-13.48,18.64-19.61,40.4-26.16,62C61,173.62,60.79,174.29,62.13,174.7Z" style="fill:#ffc54e"/><path d="M311.17,91.08C294,109.18,273.94,124.15,256.29,142c-1.56-1.16-3-2.12-4.27-3.18-2.58-2.1-5.22-4.12-7.93-6l-30.52,14.34c10.72,5.41,22.14,9.08,33.85,12,9.62,2.41,17.87-.48,25.07-7a118.62,118.62,0,0,0,11.86-12.18c11.6-14,19.16-30.46,27.17-46.59a7.1,7.1,0,0,0,.4-1.57Z" style="fill:#ffc54e"/><polygon points="154.22 125.11 155.47 127.61 154.13 130.07 142.06 151.97 138.4 158.63 163.53 154.82 170.63 153.74 173.41 153.32 175.32 155.36 184.35 164.99 197.63 179.14 198.43 174.31 202.94 146.97 203.4 144.2 205.93 143.01 206.24 142.87 235.44 129.15 226.81 124.68 206.47 114.16 204 112.87 203.65 110.09 203.56 109.52 199.57 77.74 176.38 100.65 176.28 100.75 174.38 102.62 171.63 102.09 161.54 100.16 139.59 95.96 152.74 122.16 154.22 125.11" style="fill:#ffc54e"/><path d="M220.23,195.65a45.47,45.47,0,0,0-7.21-7.72c-2.87-2.43-5.8-4.77-8.79-7.05L202,194.46l-31.5-33.59-36.72,5.57a25.09,25.09,0,0,0-.86,13.47c-1.43,1.79-2.82,3.44-4.13,5.16Q84.86,243.34,41,301.63a11.66,11.66,0,0,0-2.87,7c22-16.24,42-34.93,62.16-53.27s40.82-36.67,59.37-57.22c10.29,5.59,21.73,7.71,32.66,12.17-10.92,13.47-20.86,27-30.23,40.9s-19.81,27-30.58,40.66a7.44,7.44,0,0,0,5.08-1.75q10.11-6.9,20.19-13.87c18-12.42,35.86-25.17,50.67-41.54a98.79,98.79,0,0,0,14.51-20C225.52,207.9,224.72,201.71,220.23,195.65Z" style="fill:#ffc54e"/></svg>