<svg xmlns="http://www.w3.org/2000/svg" viewBox="0 0 350 350"><path d="M251.3,165.11c-3.11,0-6.21,0-9.32,0H240.8V131a66.5,66.5,0,0,0-1.4-14.07c-3.38-15.65-11.24-28.6-23.92-38.39-15.92-12.29-33.93-16.3-53.64-12.59a62.66,62.66,0,0,0-26,11.56,65.06,65.06,0,0,0-20.54,25.27,66.9,66.9,0,0,0-6.07,28.62c0,10.81,0,21.62,0,32.43v1.33H99c-1.57,0-1.69.13-1.69,1.73V283.67c0,1.64.13,1.76,1.77,1.76H251c1.45,0,1.67-.18,1.67-1.47V166.55C252.71,165.33,252.51,165.12,251.3,165.11Zm-56.71,73.32-12.71-6.3c2,8.37,4.66,19.19,6.44,26.82.13.54.23,1.09.37,1.79-10.6.46-16.85-.19-27.38.27.9-4.07,1.77-8,2.65-11.95.9-4.09,2.56-11.37,3.82-16.88l-12.58,6.13L159,217.83l-15.89-14.56,22-2.92,9.9-18.62,9.8,18.67,22,3.06-16,14.46ZM222.48,164v1.1H127.57c0-.35,0-.64,0-.92,0-11.69-.19-23.38.08-35.06.33-14.47,6.32-26.37,17.46-35.6a45.5,45.5,0,0,1,25.3-10.39,47.43,47.43,0,0,1,52.12,47.56Q222.47,147.31,222.48,164Z" style="fill:#8dbd5b"/><rect width="350" height="350" style="fill:none"/></svg>