<?xml version="1.0" encoding="utf-8"?>
<!-- Generator: Adobe Illustrator 25.2.0, SVG Export Plug-In . SVG Version: 6.00 Build 0)  -->
<svg version="1.1" id="Layer_1" xmlns="http://www.w3.org/2000/svg" xmlns:xlink="http://www.w3.org/1999/xlink" x="0px" y="0px"
	 viewBox="0 0 350 88.7" style="enable-background:new 0 0 350 88.7;" xml:space="preserve">
<style type="text/css">
	.st0{fill:#333333;}
</style>
<g>
	<path class="st0" d="M21.8,85.1c-11.9,0-20-9.8-18-21.7L14.5,3.7h15.9L19.9,63.1c-0.6,3.3,1.7,6,4.9,6h24.6l2.1,15.9H21.8z"/>
	<path class="st0" d="M127.1,25.4l-6.8,38c-2,11.9-13.5,21.7-25.4,21.7H74.4c-11.9,0-20-9.8-18-21.7l6.8-38
		C65.2,13.4,76.8,3.7,88.8,3.7h20.5C121.2,3.7,129.2,13.4,127.1,25.4z M110.9,25.7c0.6-3.4-1.6-6-4.9-6H86.1c-3.3,0-6.5,2.7-7.1,6
		l-6.5,37.4c-0.6,3.3,1.7,6,4.9,6h19.9c3.4,0,6.5-2.8,7.1-6L110.9,25.7z"/>
	<path class="st0" d="M198.1,63.3c-2,11.9-13.5,21.7-25.4,21.7h-22.9c-11.9,0-20-9.8-18-21.7l6.8-38c2.1-11.9,13.6-21.7,25.6-21.7
		h35l-7.7,16h-29.9c-3.3,0-6.5,2.7-7.1,6l-6.5,37.4c-0.6,3.3,1.7,6,4.9,6h22.3c3.4,0,6.5-2.8,7.1-6l1.8-10.7h-15.9l-1.9-16H203
		L198.1,63.3z"/>
	<path class="st0" d="M242,85.1l14.4-81.4h15.9l-14.4,81.4H242z"/>
	<path class="st0" d="M332.1,85.1h-16l-21.8-50.6l-8.9,50.6h-15.9l14.4-81.4h15.9l21.7,50.6l9-50.6h16l-13.6,76.9L332.1,85.1z"/>
</g>
</svg>
