<svg xmlns="http://www.w3.org/2000/svg" viewBox="0 0 350 350"><path d="M25.89,202.05c-11.8,0-19.78-9.65-17.76-21.45l10.49-59H34.35L24,180.36a4.91,4.91,0,0,0,4.89,6H53.18l2,15.73Z" style="fill:#333"/><path d="M133.74,148.42l-6.67,37.9c-1.55,8.7-9.78,15.73-18.59,15.73H76.9c-8.7,0-14.54-7-13-15.73l6.67-37.9c1.55-8.81,9.77-15.85,18.47-15.85h31.58C129.45,132.57,135.29,139.61,133.74,148.42Zm-16.45,3.1a2.42,2.42,0,0,0-2.5-3.1H89.53a4,4,0,0,0-3.82,3.1L80.23,183.1a2.58,2.58,0,0,0,2.62,3.22h25.27a3.92,3.92,0,0,0,3.69-3.22Z" style="fill:#333"/><path d="M200.83,190a52.11,52.11,0,0,1-12.51,25.74l-.24.35-.35.36-12,11.92-9.3-11.2,10.85-10.61A36,36,0,0,0,185,190l7.39-41.6H164a3.94,3.94,0,0,0-3.81,3.1l-5.49,31.58a2.59,2.59,0,0,0,2.63,3.22h23.59l-7.51,15.73h-22c-8.7,0-14.54-7-13-15.73l6.67-37.9c1.55-8.81,9.77-15.85,18.47-15.85h23.72l6.55,7.87,1.31-7.87H211Z" style="fill:#333"/><path d="M245.88,202.05l14.18-80.44h15.73l-14.18,80.44Z" style="fill:#333"/><path d="M332.52,202.05H316.67l8.82-50.53a2.43,2.43,0,0,0-2.51-3.1h-24.9l-9.42,53.63H272.93l12.16-69.48h15.73l-1.31,7.87,9.29-7.87h20c8.82,0,14.66,7,13.11,15.85Z" style="fill:#333"/></svg>