<svg xmlns="http://www.w3.org/2000/svg" viewBox="0 0 319.04 69.89"><path d="M32,23.8H21.29L16.07,53.61H8.81l4.57-26.18,4.29-3.63H3.37l1.32-7.32H33.28Z" style="fill:#fffffa"/><path d="M53.58,53.61,49.07,42.44H42.64l3.52-7.31H54a3.39,3.39,0,0,0,3.24-2.75l1-5.83A2.21,2.21,0,0,0,56,23.8H43.08L37.85,53.61H30.59l6.55-37.13H57.48c5.39,0,9,4.35,8.14,9.74v.16l-1.1,6.16v.17a12.57,12.57,0,0,1-7.42,8.85l4.89,12Zm10.94-20.9v0Zm1.1-6.33v0Z" style="fill:#fffffa"/><path d="M96.64,53.61H89.33l1.92-11.17H78.33l3.52-7.31H92.57l1.49-8.58A2.22,2.22,0,0,0,91.8,23.8H81.63a3.44,3.44,0,0,0-3.24,2.75L73.66,53.61H66.4l4.78-27.23a12.37,12.37,0,0,1,11.66-9.9H93.29c5.44,0,9.07,4.46,8.14,9.9Z" style="fill:#fffffa"/><path d="M128.49,46.35l-1.27,7.26H111.77a8.14,8.14,0,0,1-8.19-9.9l3.08-17.33a12.35,12.35,0,0,1,11.65-9.9h15.46l-3.52,7.32H117.1a3.44,3.44,0,0,0-3.24,2.75l-3,17.05a2.27,2.27,0,0,0,2.26,2.75Z" style="fill:#fffffa"/><path d="M145.43,16.48l-6.55,37.13h-7.25l6.54-37.13Zm5.83,18.59L162,53.61h-9.13L142.13,35.07l17.32-18.59h9.13Z" style="fill:#fffffa"/><path d="M212.69,43.71a12.3,12.3,0,0,1-11.6,9.9H180.74l3.46-7.26h18a3.45,3.45,0,0,0,3.24-2.75l.33-2.15a2.21,2.21,0,0,0-2.25-2.75H193.22c-5.44,0-9.07-4.45-8.14-9.9l.44-2.42a12.37,12.37,0,0,1,11.66-9.9h17.6l-3.52,7.32H196a3.44,3.44,0,0,0-3.24,2.75l-.33,2.09a2.24,2.24,0,0,0,2.25,2.75H205c5.45,0,9.07,4.45,8.14,9.9Z" style="fill:#fffffa"/><path d="M247,23.8H236.34l-5.22,29.81h-7.26l4.56-26.18,4.29-3.63h-14.3l1.32-7.32h28.6Z" style="fill:#fffffa"/><path d="M275.88,53.61h-7.31l1.93-11.17H257.57l3.52-7.31h10.72l1.49-8.58a2.22,2.22,0,0,0-2.25-2.75H260.87a3.44,3.44,0,0,0-3.24,2.75L252.9,53.61h-7.26l4.78-27.23a12.37,12.37,0,0,1,11.66-9.9h10.45c5.44,0,9.07,4.46,8.14,9.9Z" style="fill:#fffffa"/><path d="M304.1,53.61l-4.51-11.17h-6.43l3.52-7.31h7.86a3.39,3.39,0,0,0,3.24-2.75l1-5.83a2.21,2.21,0,0,0-2.25-2.75H293.6l-5.23,29.81h-7.26l6.55-37.13H308c5.39,0,9,4.35,8.14,9.74v.16L315,32.54v.17a12.57,12.57,0,0,1-7.42,8.85l4.89,12ZM315,32.71v0Zm1.1-6.33v0Z" style="fill:#fffffa"/></svg>