<svg xmlns="http://www.w3.org/2000/svg" viewBox="0 0 350 100"><path d="M45.17,30.62a9.17,9.17,0,0,0-.36-.87c-.36-.52-1-.42-2.42-.47-2.53,0-5.37.1-6.92.26-.21,0-.36-.05-.36-.1.1-.31,5.47-.47,7.38-.47l1.19.05c.15,0,.2,0,.2-.05-.31-.31-.51-.41-.51-.52l.1-.05.83.11c.25,0,.25-.11.25-.52a.94.94,0,0,0-.51-.93c-.26-.2-.62-.31-2.17-.31-6.55.16-3,.05-9.55.16-1.29,0-1.8,0-1.8-.11s-.31-.31-.57-.31-.47.16-.83.31c.26-.31.16-.15.26-.51s-.15-.62-.36-.62l-.21,0,0-.1c0-.42-1.49-1.34-2.42-1.4-.67,0-1,.83-2.84,3.31-7,.77-8.88,1.18-10.37,1.18-1.29.31.87-.15-6.2.67a11.93,11.93,0,0,1-3.14.37H3.22c-.67,0-1,.05-1,.25s.67,1.09.67,1.45c0,.2-.41.46-.41.57s.25.15.25.25l-.1.21a1.43,1.43,0,0,0,.21.57c.36.62.36,1.08.67,1.29a2.85,2.85,0,0,1,.87,1.8l-.05.16c0,.41.31.72,3.41.72a33.52,33.52,0,0,0,5.42-.41,4.91,4.91,0,0,1,1.34-.16,30.64,30.64,0,0,1,4-.51l.21.05c0,.1-1,2.22-2.32,4.75-2.94,5.93-4.65,9.8-4.8,11.4a1,1,0,0,1-.36.67,16.65,16.65,0,0,0-1.5,4.13c0,.05,0,.05,0,.05,0,.21-.26.47-.51,1.14l.05.1c0,.16-.36.93-.36,1.08l.05.11c0,.15-.52.72-.52.88h.21l.1-.06.05.06c0,.15-.77,1.13-.77,1.34l.57-.31a13.31,13.31,0,0,1-1.29,1.75l.87-.41-.1.31c-.62.82-.93,1.19-.93,1.34v.05c0,.31-.62,1.19-.62,1.34l.16-.1,0,0c0,.16-.72,1-.72,1.29h.15l0,0a8.9,8.9,0,0,0-1,2.43,20.71,20.71,0,0,0-.67,3.2A.89.89,0,0,0,5,73.4c.52.31.72.73,1.09.73s.72-.42,1.08-.42.36.11.36.26l0,.26c0,.31.52.51,1.75.67a22.92,22.92,0,0,1,3,.83c.46,0,.62-.52.62-1.09s-.16-.57-.16-.82A31.51,31.51,0,0,1,14,67.31a112.81,112.81,0,0,1,8.31-20.23c2.06-3.87,6.3-11.35,6.92-12.07.1-.1,9-.93,11.66-1.14,1.34,0,2.89,0,3.3,0h.47c.2,0,.25,0,.25-.1l0-.26c-.05-.31,0-.41-.67-.41s-1.6.1-3.77.2c-.56,0-.87,0-.87-.1s-.06,0-.11,0c-.2,0-.72.41-.93.41s-.15-.1-.15-.36.15-.46.31-.46l1.13,0c2.33-.37,5.17-.11,5.17-.47-.16-.26-.06-.36-1.14-.36-2,.05-2.37.1-3.66.1-.47,0-.73,0-.73-.05a13.26,13.26,0,0,1,3.72-.36c1.08,0,1.5-.05,1.5-.21a.79.79,0,0,1-.11-.36C44.5,30.67,45.17,30.83,45.17,30.62Z" style="fill:#fffffa"/><path d="M82.89,36.45a9.65,9.65,0,0,0-1-3.61,17.32,17.32,0,0,1-1-2.17c-1-2.32-1.7-3.3-2.89-4a21.53,21.53,0,0,0-6.76-1.76c-.57-.05-1.45-.15-2-.25-.73-.06-2.22-.11-4-.11a80.8,80.8,0,0,0-9.34.36,53.91,53.91,0,0,0-6,1.14,11,11,0,0,1-2,.72c-2.42,1-4.33,2.22-4.33,2.89a4,4,0,0,0,1,1.76c.1,0,.15.1.15.2a7.72,7.72,0,0,1-.31,1,3.79,3.79,0,0,0,.62,1.44c.88,1.55,1.19,2.37,1.55,2.37.05,0,.1-.05.1-.15s-.41-.1-.41-.21.1-.26.21-.26a.55.55,0,0,1,.46.47l-.05.31a.11.11,0,0,0,.1.1s.16-.05.16-.26c0-.05.05-.1.2-.1l.47.1.1-.05c0-.2-1.08-.67-1.08-.82s.72-.36.72-.47,3.66-1.75,5.37-2.17a28.78,28.78,0,0,1,2.89-.67v.06c0,.31-1,2.27-3.51,6.65-2,3.31-2.17,3.77-3.72,6.81-1.29,2.58-1.39,2.74-2.11,2.89-.52.16-.73.26-.73.57s.36.52.36,1-.1.52-.2,1.24c0,.26.15.16.15.31s-.41.62-.41.72v0c.15-.15.1-.1.31-.15,0,.1-.21.31-.62.57l.21-.36c-.42.31-.57.51-.57.56l.26-.1s0,0,0,.16c0,.51-.52,1.08-1,1.8l.36-.15c.1,0,.1,0,.1.1,0,.31-1.19,1.75-1.19,2.27,0,0,.06,0,.11.1,0,.26-.88,1.35-.88,1.5l.41-.31v.05c0,.16-.77.93-.77,1.14l.26,0,.1,0c0,.2-.52.67-1.13,1.6l.2-.16a1.67,1.67,0,0,1,.52-.36c0,.16-1.34,1.55-1.34,1.7l.1,0a.83.83,0,0,1,.41-.26c0,.16-1,1.19-1,1.4,0,0,0,0,.05,0s.21-.16.52-.36c-.16.57-1.14,1.13-1.14,1.34s.11.31.21.31c.26-.1.26-.21.41-.21s.11,0,.11.11c0,.31-1.09.87-1.29,1.6,0,0,.15-.11.46-.36a10.12,10.12,0,0,0-2.27,5.16c0,1.34.67,1.6,1.91,2.11l-1.08,0c-.16,0-.26,0-.26,0a5.13,5.13,0,0,0,2.22.67c1.24.16,4.59,1.45,5.88,1.45a1.56,1.56,0,0,0,1.19-.57c0-.05-.52,0-.52-.1s.1-.26.41-.67v-.06c-.41.11-.2.11-.56.11A1.16,1.16,0,0,1,45.53,73a24.06,24.06,0,0,1,1.6-6.19,110.2,110.2,0,0,1,4.44-10.37l1.6-.11c1.7,0,7.48.26,9,.52l11.45.93a20.84,20.84,0,0,0,3.05.15,10.83,10.83,0,0,1,2.94.31c.31,0,.16-.41.41-.41a.83.83,0,0,0,.37,0c.1,0,.2,0,.2-.1a20.4,20.4,0,0,0-1-3.36,9.75,9.75,0,0,1-.72-1.86c-.57-1.75-.88-2.32-1.4-2.63-.93-.62-4.28-.72-11.14-1,2.78-1.55,7.79-4.18,9-4.9C80.73,40.63,82.89,38.47,82.89,36.45Zm-6.65-4.18c.1,0,.1.11.1.26,0,1.19-17,10.63-17.65,10.63h0c0-.57,5.88-9.7,7.48-11.92l1.34.1.88-.05C71.39,31.29,70.92,31.4,76.24,32.27Z" style="fill:#fffffa"/><path d="M118.4,25.77a7.8,7.8,0,0,0-2-1.49c-.15,0-.72-.62-.82-.62h0c-.11,0-.11-.06-.21-.16a4,4,0,0,0-1.86-1c-.36.05-.67,1-.93,1s-.1-.1-.31-.1c-.41,0-2.73,2.22-2.94,2.58-.2.62-3.45,3.66-5.78,6.66a36.13,36.13,0,0,0-3.09,3.66c-.88,1.08-2.89,3.35-3.72,4.39C92.59,45.33,80,61,79.28,61.53c-1,.62-7.28,3.36-8.88,4.29a13.13,13.13,0,0,0-2.47,1.65c.51.46.82.77.82,1v.1c0,.16,0,.26.21.26s.2-.1.46-.31c.11,0,.16.11.26.36s-.26.21-.26.47.41.88.67.88.57-.21.78-.21.36.31.36.41,0,.1,0,.1l-.31-.1c0,.05.15.21.46.47,0-.16,0-.26.21-.26s.15,0,.15.1c0,.41-2.06,2.79-2.06,3.46,0,0,0,.1.05.1.26,0,.41-.2.62-.2s.41.1.41.2v0c0,.06.16.11.47.11.62.1,1.13.31,1.13.62l0,.15c0,.36,2.06.88,2.63,1.14.16.15.26.25.42.25.41,0,1.13-1,3.61-4.43a18.84,18.84,0,0,1,1.24-1.71c1.65-2.22.77-1.13,2.53-3.3.61-.36,12.17-4.7,12.84-4.7.11,0,.11.06.11.11,0,.26-.26.87-3.46,8.46a19.68,19.68,0,0,0-1.44,4.08s0,.1.05.1a6.35,6.35,0,0,0,.77-.31l-.15.21s0,0,.15,0H92c.16,0,.21,0,.21.1v0c0,.11.15.21.36.21s.47-.36.72-.36.21.05.21.26l0,.2c0,.21.62.42.72.52a14,14,0,0,0,3.36,1.29c.25,0,.36-.26.92-2.32a114.14,114.14,0,0,1,5.42-15.43l4.08-1.19c-.1-.36,0-.21-.21-.52l.06-.05.15.05c.31-.1.41-.1.41-.3s-.51-.83-.51-1l.05-.1c0-.05-.16-.15-.36-.2a.56.56,0,0,1-.36-.37,3.09,3.09,0,0,0-1.29-.87c0-.47,2.63-6.61,10.16-23.85C117.26,28.51,117.62,27.68,118.4,25.77ZM103.17,45.12c-1.55,3.72-2.94,7.23-3.35,8-.47,1.14-1.24,1.08-8.16,3.61,0-.25,4.24-5,7.38-8.77,3.77-4.39,5.32-6.09,5.47-6.09C104.51,42,103.89,43.42,103.17,45.12Z" style="fill:#fffffa"/><path d="M142.65,44.45c1.24-1.29,4.54-7.63,5.36-10.22a13.58,13.58,0,0,0,1-4.43,5.07,5.07,0,0,0-.25-1.6c-.36-.88-.52-1-4.65-3.1-3.15-1.65-3.46-1.81-4.69-1.86h-.62c-4.24,0-10.94,5-16.67,12a26,26,0,0,0-2.43,3.09,58.11,58.11,0,0,0-8.31,15.43c-1.85,4.9-2.37,7.17-2.37,10.43,0,3.61.72,4.12.72,4.85l-.1.25,0,.06.16-.11c.25,0,.31.26.46.67,0,.06,0,.06-.05.06l-.16-.06s0,0,0,.06.11.25.16.25l.15,0a5.72,5.72,0,0,1,1.45,1.71l-.05,0c-.11,0-1-1.19-1.09-1.19s-.05,0-.05,0c0,.36,2.06,2.38,3.3,3.15a33,33,0,0,0,5.89,1.91,23.72,23.72,0,0,0,5,.88c3.82,0,8-2.07,12.28-6.25a57.45,57.45,0,0,0,6.3-7.27l0-.31c0-.16,0-.21-.1-.21-.21,0-.26.15-.72.26-.26,0-.42,0-.42-.21v-.21s0,0-.05,0-.31.26-.62.26-.62-.1-.62-.31l.11-.36-.06,0-.2,0-1.09-.21c-.46,0-.67.47-1.7,1.6.72-1,1.19-1.49,1.19-1.91,0-.2-.47-.15-1.76-.41a72.57,72.57,0,0,1-7.74,7.48c-3.09,2.48-7,4.55-9.39,5h-.36c-.41,0-.52-.16-1.24-.93a8.81,8.81,0,0,1-2.42-6.4c0-5.11,2.78-11.51,5.57-16.31a54.53,54.53,0,0,1,6.86-9.75A77,77,0,0,1,137.18,32a26.08,26.08,0,0,1,4.18-2.64c0,.11,0,.06,0,.11a22.16,22.16,0,0,1-1.14,3.82,72.72,72.72,0,0,1-3.92,8.2c-2.37,4-2.06,4-3.71,6.09a6,6,0,0,0,1.9.57c.62,0,.52-.31,1.14-1a2.57,2.57,0,0,0-.62,1.6c0,.46,1.45,1.08,2,1.08s.42-.1.78-.21l0,.21c.25-.21.1-.1.46-.26.1,0,.16.11.16.26l-.06.41a12.75,12.75,0,0,0,2.58-3.2,9,9,0,0,0,1.4-2.21l-.05-.06C142.29,44.76,142.44,44.61,142.65,44.45Z" style="fill:#fffffa"/><path d="M146.62,75.21l-1.39-.67c-.52-.52-.88-.1-1-1.09-.05-.41-.2-.61-.36-.61-.31.15-.36.36-.51.36s-.26-.11-.42-.26c-.72-.62-1.65-.41-1.65-1.08,0-.88,1.86-5.68,4.23-10.69.31-.72,2-4.69,3.56-8.93,8.21-20.17,10.48-23.53,11.92-26.11,0-.1,1.24-2.42,1.91-2.42,1.5,0,5.73,4.64,5.84,5.36a16.17,16.17,0,0,1-1.09,2.58c-2.37,4.86-6.45,13.73-6.45,14.2h.05c.21,0,15.9-9.5,15.9-9.86H177c0-.21,2.53-1.7,5.68-3.3a34.16,34.16,0,0,0,3.87-2c1.19,0,2.48,2.43,2.48,2.79s0,.21-.26.41l.05.06.16-.06c.56,0,1.7,1.76,2.16,3,0,.31-.82.93-1.49,1.29-4,2.53-4.85,3-5.16,3.2l-3.05,2c-1.24.62-6.4,3.92-7,4.23-3.51,2.06-11.62,7-11.93,7.33,0,.2,10.33.31,13.58.82a6.82,6.82,0,0,0,1.49.21c.52,0,1.81,2,2.43,2.58.1.15.21.26.21.36s-.11.21-.26.46c.15-.05.05-.05.2-.05s.42.16.78.52l-.26-.1,0,0c.15.46.51,0,1.24,1.29a2.91,2.91,0,0,0,.87,1c0,.52-1.08,1.75-5.21,1.75-1.86,0-4.49-.15-8.1-.51a118.1,118.1,0,0,0-12.18-.67h-2.94c-2.53,6.65-2.63,6.6-4.64,11.82a5.2,5.2,0,0,1-1.35,1.8C148,76.24,148,75.93,146.62,75.21Z" style="fill:#fffffa"/><path d="M219.33,77.07c-.57-.16-1.76-1.14-4.91-3.87-4.13-3.67-4.8-4.29-4.8-6a23.57,23.57,0,0,1,.31-2.94,3.43,3.43,0,0,0,.21-.83c.67-3.56,4.18-10.94,5.83-10.94.67,0,2.43,1.5,2.43,2a1,1,0,0,0-.16.56,1.59,1.59,0,0,0,1,1.09c.21,0,.21-.16.52-.26l-.1.21c0,.31,1.8.77,1.8,1.44a4.84,4.84,0,0,1-.57,1.29,29.62,29.62,0,0,0-3,10.79l1.19-.26a31.15,31.15,0,0,0,3.87-1.4l2-1c5.42-2.68,10.32-7.38,10.68-10.73,0-.62-.57-1.14-3.35-3.2-6.82-5.06-7.07-5.31-9.55-9.6-2.84-5-2.89-5.16-2.89-6.14a4.35,4.35,0,0,1,.67-2.48c.15-.1.31-.25.31-.36l-.05-.05a12.85,12.85,0,0,1,3-3c5-3.56,13.31-6.87,16.77-6.87a1.8,1.8,0,0,1,1.76.88,24.38,24.38,0,0,1,2.37,7.38l-.05.21c-.26-.21-.16-.47-.36-.73-.16,0-.21.52-.31,1.4-.31-.73-.31-1.09-1.5-1.09-3.2,0-12.69,4-15.64,7A6.09,6.09,0,0,0,225.11,42c7.63,5.83,9.7,7.07,13.26,13.15,2.27,4,3.15,5.89,3.15,7.75,0,4.64-6.09,11.19-16.67,13.62a19.44,19.44,0,0,1-4.29.72A4.6,4.6,0,0,1,219.33,77.07Z" style="fill:#fffffa"/><path d="M288.16,30.62a9.17,9.17,0,0,0-.36-.87c-.36-.52-1-.42-2.42-.47-2.53,0-5.37.1-6.92.26-.21,0-.36-.05-.36-.1.1-.31,5.47-.47,7.38-.47l1.19.05c.15,0,.2,0,.2-.05-.31-.31-.51-.41-.51-.52l.1-.05.83.11c.25,0,.25-.11.25-.52a.94.94,0,0,0-.51-.93c-.26-.2-.62-.31-2.17-.31-6.55.16-3,.05-9.55.16-1.29,0-1.8,0-1.8-.11s-.31-.31-.57-.31-.46.16-.83.31c.26-.31.16-.15.26-.51s-.15-.62-.36-.62l-.21,0-.05-.1c0-.42-1.49-1.34-2.42-1.4-.67,0-1,.83-2.84,3.31-7,.77-8.88,1.18-10.37,1.18-1.29.31.87-.15-6.2.67a11.93,11.93,0,0,1-3.14.37h-.57c-.67,0-1,.05-1,.25s.67,1.09.67,1.45c0,.2-.41.46-.41.57s.25.15.25.25l-.1.21a1.43,1.43,0,0,0,.21.57c.36.62.36,1.08.67,1.29a2.86,2.86,0,0,1,.88,1.8l-.06.16c0,.41.31.72,3.41.72a33.52,33.52,0,0,0,5.42-.41,4.85,4.85,0,0,1,1.34-.16,30.64,30.64,0,0,1,4-.51l.21.05c0,.1-1,2.22-2.32,4.75-2.94,5.93-4.65,9.8-4.8,11.4a1,1,0,0,1-.36.67,16.65,16.65,0,0,0-1.5,4.13c0,.05,0,.05,0,.05,0,.21-.26.47-.51,1.14l.05.1c0,.16-.36.93-.36,1.08l.05.11c0,.15-.52.72-.52.88h.21l.1-.06.05.06c0,.15-.77,1.13-.77,1.34l.57-.31a13.31,13.31,0,0,1-1.29,1.75l.87-.41-.1.31c-.62.82-.93,1.19-.93,1.34v.05c0,.31-.62,1.19-.62,1.34l.16-.1.05,0c0,.16-.72,1-.72,1.29h.15l.05,0a8.9,8.9,0,0,0-1,2.43,20.71,20.71,0,0,0-.67,3.2.89.89,0,0,0,.41.77c.52.31.73.73,1.09.73s.72-.42,1.08-.42.36.11.36.26l-.05.26c0,.31.52.51,1.75.67a22.92,22.92,0,0,1,3,.83c.46,0,.62-.52.62-1.09s-.16-.57-.16-.82a31.51,31.51,0,0,1,1.29-6.51,112.81,112.81,0,0,1,8.31-20.23c2.06-3.87,6.3-11.35,6.92-12.07.1-.1,9-.93,11.66-1.14,1.34,0,2.89,0,3.3,0h.47c.2,0,.25,0,.25-.1l-.05-.26c-.05-.31,0-.41-.67-.41s-1.6.1-3.77.2c-.56,0-.87,0-.87-.1s-.05,0-.11,0-.72.41-.93.41-.15-.1-.15-.36.15-.46.31-.46l1.13,0c2.33-.37,5.17-.11,5.17-.47-.16-.26-.06-.36-1.14-.36-2,.05-2.37.1-3.66.1-.47,0-.73,0-.73-.05a13.26,13.26,0,0,1,3.72-.36c1.08,0,1.5-.05,1.5-.21a.79.79,0,0,1-.11-.36C287.49,30.67,288.16,30.83,288.16,30.62Z" style="fill:#fffffa"/><path d="M309.84,25.77a8,8,0,0,0-2-1.49c-.16,0-.73-.62-.83-.62H307c-.1,0-.1-.06-.21-.16a4,4,0,0,0-1.86-1c-.36.05-.67,1-.93,1s-.1-.1-.3-.1c-.42,0-2.74,2.22-2.95,2.58-.2.62-3.45,3.66-5.78,6.66a36.13,36.13,0,0,0-3.09,3.66c-.88,1.08-2.89,3.35-3.72,4.39C284,45.33,271.39,61,270.72,61.53c-1,.62-7.28,3.36-8.88,4.29a13.13,13.13,0,0,0-2.47,1.65c.51.46.82.77.82,1v.1c0,.16.05.26.21.26s.21-.1.46-.31c.11,0,.16.11.26.36s-.26.21-.26.47.42.88.67.88.57-.21.78-.21.36.31.36.41,0,.1-.05.1l-.31-.1c0,.05.15.21.46.47,0-.16,0-.26.21-.26s.15,0,.15.1c0,.41-2.06,2.79-2.06,3.46,0,0,0,.1.05.1.26,0,.41-.2.62-.2s.41.1.41.2v0c0,.06.16.11.47.11.62.1,1.13.31,1.13.62l-.05.15c0,.36,2.07.88,2.63,1.14.16.15.26.25.42.25.41,0,1.13-1,3.61-4.43a18.84,18.84,0,0,1,1.24-1.71c1.65-2.22.77-1.13,2.53-3.3.62-.36,12.17-4.7,12.85-4.7.1,0,.1.06.1.11,0,.26-.26.87-3.46,8.46a19.68,19.68,0,0,0-1.44,4.08s0,.1.05.1A6.35,6.35,0,0,0,283,75l-.15.21s0,0,.15,0h.41c.16,0,.21,0,.21.1v0c0,.11.16.21.36.21s.47-.36.73-.36.2.05.2.26l-.05.2c0,.21.62.42.72.52a14.2,14.2,0,0,0,3.36,1.29c.25,0,.36-.26.93-2.32a114,114,0,0,1,5.41-15.43l4.08-1.19c-.1-.36,0-.21-.21-.52l.06-.05.15.05c.31-.1.41-.1.41-.3s-.51-.83-.51-1l.05-.1c0-.05-.16-.15-.36-.2a.56.56,0,0,1-.36-.37,3.09,3.09,0,0,0-1.29-.87c0-.47,2.63-6.61,10.16-23.85C308.7,28.51,309.06,27.68,309.84,25.77ZM294.61,45.12c-1.55,3.72-2.94,7.23-3.35,8-.47,1.14-1.24,1.08-8.16,3.61,0-.25,4.24-5,7.38-8.77,3.77-4.39,5.32-6.09,5.48-6.09C296,42,295.34,43.42,294.61,45.12Z" style="fill:#fffffa"/><path d="M347.76,36.45a9.65,9.65,0,0,0-1-3.61,17.32,17.32,0,0,1-1-2.17c-1-2.32-1.7-3.3-2.89-4a21.53,21.53,0,0,0-6.76-1.76c-.57-.05-1.45-.15-2-.25-.73-.06-2.22-.11-4-.11a80.8,80.8,0,0,0-9.34.36,53.91,53.91,0,0,0-6,1.14,11,11,0,0,1-2,.72c-2.43,1-4.33,2.22-4.33,2.89a4,4,0,0,0,1,1.76c.1,0,.15.1.15.2a7.72,7.72,0,0,1-.31,1,3.79,3.79,0,0,0,.62,1.44c.88,1.55,1.19,2.37,1.55,2.37.05,0,.1-.05.1-.15s-.41-.1-.41-.21.1-.26.2-.26a.55.55,0,0,1,.47.47l-.05.31a.11.11,0,0,0,.1.1c.05,0,.16-.05.16-.26,0-.05,0-.1.2-.1l.47.1.1-.05c0-.2-1.08-.67-1.08-.82s.72-.36.72-.47,3.66-1.75,5.37-2.17a28.78,28.78,0,0,1,2.89-.67v.06c0,.31-1,2.27-3.51,6.65-2,3.31-2.17,3.77-3.72,6.81-1.29,2.58-1.39,2.74-2.12,2.89-.51.16-.72.26-.72.57s.36.52.36,1-.1.52-.2,1.24c0,.26.15.16.15.31s-.41.62-.41.72v0c.15-.15.1-.1.31-.15,0,.1-.21.31-.62.57l.21-.36c-.42.31-.57.51-.57.56l.26-.1c.05,0,.05,0,.05.16,0,.51-.52,1.08-1,1.8l.36-.15c.1,0,.1,0,.1.1,0,.31-1.19,1.75-1.19,2.27,0,0,.06,0,.11.1,0,.26-.88,1.35-.88,1.5l.41-.31v.05c0,.16-.77.93-.77,1.14l.26,0,.1,0c0,.2-.52.67-1.14,1.6l.21-.16a1.67,1.67,0,0,1,.52-.36c0,.16-1.35,1.55-1.35,1.7l.11,0a.79.79,0,0,1,.41-.26c0,.16-1,1.19-1,1.4,0,0,0,0,.05,0s.21-.16.52-.36c-.16.57-1.14,1.13-1.14,1.34s.11.31.21.31c.26-.1.26-.21.41-.21s.11,0,.11.11c0,.31-1.09.87-1.3,1.6.06,0,.16-.11.47-.36a10.12,10.12,0,0,0-2.27,5.16c0,1.34.67,1.6,1.91,2.11l-1.09,0c-.15,0-.25,0-.25,0a5.13,5.13,0,0,0,2.22.67c1.23.16,4.59,1.45,5.88,1.45a1.56,1.56,0,0,0,1.19-.57c0-.05-.52,0-.52-.1s.1-.26.41-.67v-.06c-.41.11-.2.11-.57.11A1.16,1.16,0,0,1,310.4,73,24.06,24.06,0,0,1,312,66.8a107.59,107.59,0,0,1,4.44-10.37l1.6-.11c1.7,0,7.48.26,9,.52l11.45.93a20.84,20.84,0,0,0,3,.15,10.83,10.83,0,0,1,2.94.31c.31,0,.16-.41.41-.41a.81.81,0,0,0,.36,0c.11,0,.21,0,.21-.1a20.4,20.4,0,0,0-1-3.36,9.75,9.75,0,0,1-.72-1.86c-.57-1.75-.88-2.32-1.4-2.63-.93-.62-4.28-.72-11.14-1,2.78-1.55,7.79-4.18,9-4.9C345.6,40.63,347.76,38.47,347.76,36.45Zm-24.2,6.71h-.05c0-.57,5.88-9.7,7.48-11.92l1.34.1.88-.05c3,0,2.58.11,7.9,1,.1,0,.1.11.1.26C341.21,33.72,324.18,43.16,323.56,43.16Z" style="fill:#fffffa"/></svg>