<svg xmlns="http://www.w3.org/2000/svg" viewBox="0 0 319.04 69.89"><path d="M95.34,52.68H88L90,41.52H77l3.52-7.32H91.27l1.49-8.58a2.22,2.22,0,0,0-2.26-2.75H80.33a3.44,3.44,0,0,0-3.24,2.75L72.36,52.68H65.1l4.78-27.22a12.36,12.36,0,0,1,11.66-9.9H92c5.44,0,9.07,4.45,8.14,9.9Z" style="fill:#fffffa"/><path d="M102,22.94h0a10.38,10.38,0,0,0-1.64-5.15,9,9,0,0,0-2.16-2.24H96.07a6.6,6.6,0,0,1,2.92,2c.23.28.43.55.6.78A8.11,8.11,0,0,1,100.73,21a1,1,0,0,0,0,.17c0,.24.1.49.14.74a2.21,2.21,0,0,1,0,.25,10.27,10.27,0,0,1,0,3.18l-4.7,27.31h1l4.66-27.14A10.76,10.76,0,0,0,102,22.94Z" style="fill:#fffffa"/><path d="M83.8,23.73H80a2.42,2.42,0,0,0-2.13,2.18L74.37,46.44l-1.06,6.24h1l1.07-6.24,3.48-20.36c.23-1.29,1.15-1.35,1.18-1.35h9.51l.48-1Z" style="fill:#fffffa"/><path d="M274.59,52.68h-7.32l1.93-11.16H256.27l3.52-7.32h10.73L272,25.62a2.21,2.21,0,0,0-2.25-2.75H259.57a3.44,3.44,0,0,0-3.24,2.75L251.6,52.68h-7.26l4.78-27.22a12.36,12.36,0,0,1,11.66-9.9h10.45c5.45,0,9.07,4.45,8.14,9.9Z" style="fill:#fffffa"/><path d="M281.27,22.94h0a10.38,10.38,0,0,0-1.64-5.15,9,9,0,0,0-2.16-2.24h-2.17a6.55,6.55,0,0,1,2.92,2c.23.28.43.55.6.78A8.11,8.11,0,0,1,280,21a1,1,0,0,0,0,.17c.06.24.1.49.15.74,0,.08,0,.17,0,.25a10.27,10.27,0,0,1,0,3.18l-4.69,27.31h1l4.67-27.14A11.29,11.29,0,0,0,281.27,22.94Z" style="fill:#fffffa"/><path d="M263,23.73h-3.79a2.4,2.4,0,0,0-2.12,2.18l-3.51,20.53-1.07,6.24h1l1.07-6.24,3.48-20.36c.23-1.29,1.15-1.35,1.18-1.35h9.51l.48-1Z" style="fill:#fffffa"/><polygon points="144.13 15.56 137.59 52.68 130.33 52.68 136.87 15.56 144.13 15.56" style="fill:#fffffa"/><polygon points="151.8 34.15 162.58 52.68 153.45 52.68 142.67 34.15 159.99 15.56 169.12 15.56 151.8 34.15" style="fill:#fffffa"/><polygon points="171.82 15.56 170.46 15.56 153.02 34.27 164.03 52.68 165.19 52.68 154.26 34.4 171.82 15.56" style="fill:#fffffa"/><polygon points="145.04 15.56 138.5 52.68 139.51 52.68 146.06 15.56 145.04 15.56" style="fill:#fffffa"/><path d="M52.28,52.68,47.77,41.52H41.34l3.52-7.32h7.86A3.39,3.39,0,0,0,56,31.45l1-5.83a2.21,2.21,0,0,0-2.25-2.75H41.78L36.55,52.68H29.29l6.55-37.12H56.18c5.39,0,9,4.34,8.14,9.73v.17l-1.1,6.16v.16a12.57,12.57,0,0,1-7.42,8.86l4.89,12Zm10.94-20.9v0Zm1.1-6.32v0Z" style="fill:#fffffa"/><path d="M65.24,31.84a.7.7,0,0,1,0-.14l1.07-6.24v-.09a10.26,10.26,0,0,0-2-7.46A13.38,13.38,0,0,0,62,15.56H60.24a11.35,11.35,0,0,1,3.32,2.94,9.32,9.32,0,0,1,1.78,6.78v.08l-1.07,6.19a.5.5,0,0,0,0,.13,13.24,13.24,0,0,1-7.13,9.19.51.51,0,0,0-.27.27.48.48,0,0,0,0,.39l4.82,11.14h1.09L58,41.59A14.27,14.27,0,0,0,65.24,31.84Z" style="fill:#fffffa"/><path d="M49,23.58h-6.2a.5.5,0,0,0-.49.42L39.31,41.36,37.39,52.68h1l1.92-11.32,2.84-16.78H53.32l.48-1Z" style="fill:#fffffa"/><path d="M302.8,52.68l-4.51-11.16h-6.43l3.52-7.32h7.86a3.41,3.41,0,0,0,3.25-2.75l1-5.83a2.21,2.21,0,0,0-2.25-2.75H292.3l-5.23,29.81h-7.26l6.55-37.12h20.35c5.38,0,9,4.34,8.13,9.73v.17l-1.1,6.16v.16a12.57,12.57,0,0,1-7.42,8.86l4.89,12Zm10.94-20.9v0Zm1.1-6.32v0Z" style="fill:#fffffa"/><path d="M315.76,31.84a.7.7,0,0,1,0-.14l1.07-6.24v-.09a10.22,10.22,0,0,0-2-7.46,13.38,13.38,0,0,0-2.35-2.35h-1.77a11.35,11.35,0,0,1,3.32,2.94,9.32,9.32,0,0,1,1.78,6.78v.08l-1.07,6.19a.5.5,0,0,0,0,.13,13.24,13.24,0,0,1-7.13,9.19.51.51,0,0,0-.27.27.53.53,0,0,0,0,.39l4.82,11.14h1.09l-4.8-11.09A14.27,14.27,0,0,0,315.76,31.84Z" style="fill:#fffffa"/><path d="M299.47,23.58h-6.2a.5.5,0,0,0-.49.42l-2.95,17.36-1.92,11.32h1l1.92-11.32,2.84-16.78h10.15l.48-1Z" style="fill:#fffffa"/><path d="M194.52,23.52a2.81,2.81,0,0,0-2.6,2.2l-.33,2.11a1.69,1.69,0,0,0,.33,1.42,1.64,1.64,0,0,0,1.29.56h10.33a8.84,8.84,0,0,1,6.9,3.06,9.15,9.15,0,0,1,1.88,7.61l-.44,2.41a12.94,12.94,0,0,1-12.24,10.44H178.88l-.63,1h21.39a14,14,0,0,0,13.23-11.27l.44-2.4a10.2,10.2,0,0,0-2.11-8.43,9.81,9.81,0,0,0-7.66-3.42H193.21a.65.65,0,0,1-.52-.2.79.79,0,0,1-.12-.61l.34-2.12a1.81,1.81,0,0,1,1.61-1.36H209l.47-1Z" style="fill:#fffffa"/><path d="M195.74,15.56a12.36,12.36,0,0,0-11.66,9.9l-.44,2.42c-.93,5.44,2.7,9.9,8.14,9.9h10.28a2.22,2.22,0,0,1,2.26,2.75L204,42.67a3.46,3.46,0,0,1-3.25,2.75h-18l-3.46,7.26h20.34a12.31,12.31,0,0,0,11.61-9.9l.44-2.42c.93-5.44-2.7-9.9-8.14-9.9H193.21A2.23,2.23,0,0,1,191,27.71l.32-2.09a3.45,3.45,0,0,1,3.25-2.75h15.29l3.52-7.31Z" style="fill:#fffffa"/><path d="M30.66,22.87H20L14.77,52.68H7.51L12.08,26.5l4.29-3.63H2.07l1.32-7.31H32Z" style="fill:#fffffa"/><path d="M21.28,23.58a.5.5,0,0,0-.5.41l-.61,3.37-4.6,25.23,1,.18,4.63-25.41.5-2.78h8.67l.18-1Z" style="fill:#fffffa"/><path d="M245.71,22.87H235l-5.22,29.81h-7.26l4.56-26.18,4.29-3.63h-14.3l1.32-7.31H247Z" style="fill:#fffffa"/><path d="M236.32,23.58a.49.49,0,0,0-.49.41l-.61,3.37-4.6,25.23,1,.18,4.63-25.41.51-2.78h8.66l.18-1Z" style="fill:#fffffa"/><path d="M127.19,45.42l-1.27,7.26H110.47a8.14,8.14,0,0,1-8.19-9.9l3.08-17.32A12.34,12.34,0,0,1,117,15.56h15.46L129,22.87H115.8a3.45,3.45,0,0,0-3.24,2.75l-3,17.05a2.26,2.26,0,0,0,2.26,2.75Z" style="fill:#fffffa"/><path d="M116.78,23.89a3.25,3.25,0,0,0-3.39,2.53l-.32,1.83-2.34,13.39a2.59,2.59,0,0,0,.64,2.26l0,0,.32-1.93a.53.53,0,0,1,0-.13l.24-1.37h0l2.12-12.21.29-1.64a2.31,2.31,0,0,1,2.41-1.71H128l.48-1Z" style="fill:#fffffa"/></svg>