<svg xmlns="http://www.w3.org/2000/svg" viewBox="0 0 613.81 59.61"><path d="M43.89,40l-.54,3C42.21,49.56,35.82,55,29.17,55H4.31l8-45.36H34c6.65,0,11.09,5.44,10,12.09l-.27,1.48a17.47,17.47,0,0,1-3.09,6.92A10.12,10.12,0,0,1,43.89,40Zm-9,.2a2.71,2.71,0,0,0-2.75-3.36H22.59l-1.08-8.93h9.07a4.17,4.17,0,0,0,4-3.36l.4-2.56a2.71,2.71,0,0,0-2.75-3.36H19.56L14.72,46.14h15.8a4.23,4.23,0,0,0,4-3.36Z" style="fill:#333"/><path d="M82.66,27.86l-1.61,8.93H58.34l-1,6a2.76,2.76,0,0,0,2.75,3.36H79.44L77.89,55H58.4c-6.65,0-11.15-5.45-10-12.1l3.76-21.17A15.11,15.11,0,0,1,66.4,9.65H85.89l-4.3,8.93H64.92a4.21,4.21,0,0,0-4,3.36L59.14,32.36l5.31-4.5Z" style="fill:#333"/><path d="M116.8,46.14,115.25,55H96.37c-6.65,0-11.15-5.45-10-12.1l3.76-21.17A15.09,15.09,0,0,1,104.37,9.65h18.88L119,18.58H102.89a4.22,4.22,0,0,0-4,3.36L95.3,42.78a2.76,2.76,0,0,0,2.75,3.36Z" style="fill:#333"/><path d="M162.09,21.74l-3.76,21.17C157.19,49.56,150.8,55,144.15,55H132.73c-6.66,0-11.16-5.45-10-12.1l3.77-21.17A15.09,15.09,0,0,1,140.72,9.65h11.43C158.8,9.65,163.23,15.09,162.09,21.74Zm-9,.2a2.72,2.72,0,0,0-2.76-3.36H139.24a4.21,4.21,0,0,0-4,3.36l-3.63,20.84a2.76,2.76,0,0,0,2.76,3.36h11.08a4.24,4.24,0,0,0,4-3.36Z" style="fill:#333"/><path d="M212.16,9.65l-8,45.36h-8.87l5-28.23L189.31,40.69h-6.86l-6-13.91L171.5,55h-8.87l8-45.36h8.87l8.4,19.55L203.29,9.65Z" style="fill:#333"/><path d="M246.9,27.86l-1.61,8.93H222.57l-1,6a2.77,2.77,0,0,0,2.76,3.36h19.35L242.13,55H222.64c-6.65,0-11.16-5.45-10-12.1l3.76-21.17A15.09,15.09,0,0,1,230.64,9.65h19.48l-4.3,8.93H229.16a4.22,4.22,0,0,0-4,3.36l-1.81,10.42,5.31-4.5Z" style="fill:#333"/><path d="M305.63,55h-8.94L299,41.36H283.25l4.3-8.93h13.11l1.81-10.49a2.71,2.71,0,0,0-2.75-3.36H287.28a4.22,4.22,0,0,0-4,3.36L277.54,55h-8.87l5.85-33.27A15.09,15.09,0,0,1,288.76,9.65h12.77c6.65,0,11.09,5.44,10,12.09Z" style="fill:#333"/><path d="M381.7,9.65,373.7,55h-8.87l5-28.23L358.85,40.69H352l-6-13.91L341,55h-8.87l8-45.36H349l8.4,19.55L372.83,9.65Z" style="fill:#333"/><path d="M416.44,27.86l-1.61,8.93H392.12l-1,6a2.76,2.76,0,0,0,2.75,3.36h19.36L411.67,55H392.18c-6.65,0-11.15-5.45-10-12.1l3.76-21.17A15.11,15.11,0,0,1,400.18,9.65h19.49l-4.3,8.93H398.7a4.21,4.21,0,0,0-4,3.36l-1.82,10.42,5.31-4.5Z" style="fill:#333"/><path d="M467.58,9.65l-8,45.36h-8.87l5-28.23-11,13.91h-6.85l-6-13.91-5,28.23h-8.87l8-45.36h8.87l8.4,19.55L458.71,9.65Z" style="fill:#333"/><path d="M505.55,40l-.54,3c-1.14,6.65-7.53,12.1-14.18,12.1H466l8-45.36h21.71c6.65,0,11.09,5.44,9.95,12.09l-.27,1.48a17.47,17.47,0,0,1-3.09,6.92A10.12,10.12,0,0,1,505.55,40Zm-9,.2a2.71,2.71,0,0,0-2.75-3.36h-9.54l-1.08-8.93h9.07a4.17,4.17,0,0,0,4-3.36l.4-2.56a2.71,2.71,0,0,0-2.75-3.36H481.22l-4.84,27.56h15.8a4.23,4.23,0,0,0,4-3.36Z" style="fill:#333"/><path d="M544.32,27.86l-1.61,8.93H520l-1,6a2.76,2.76,0,0,0,2.75,3.36H541.1L539.55,55H520.06c-6.65,0-11.15-5.45-10-12.1l3.76-21.17A15.11,15.11,0,0,1,528.06,9.65h19.49l-4.3,8.93H526.58a4.21,4.21,0,0,0-4,3.36L520.8,32.36l5.31-4.5Z" style="fill:#333"/><path d="M574,55l-5.51-13.65h-7.86l4.3-8.93h9.61a4.17,4.17,0,0,0,4-3.36l1.21-7.13A2.72,2.72,0,0,0,577,18.58H561.19L554.81,55h-8.88l8-45.36H578.8c6.58,0,11,5.3,9.94,11.89v.2l-1.34,7.53v.2a15.35,15.35,0,0,1-9.07,10.82l6,14.72ZM587.4,29.47v0Zm1.34-7.73v0Z" style="fill:#333"/><path d="M590.69,55l1.54-8.94h8.94L599.63,55Zm7.86-50.4h11l-8.27,36.22h-7.19Z" style="fill:#333"/></svg>