<svg xmlns="http://www.w3.org/2000/svg" viewBox="0 0 352.44 33.92"><path d="M20.25,28.17H15.83l-6-13.95-2.46,14H3l4-22.42h4.39l6,14L19.78,5.75H24.2L20.45,26.94Z" style="fill:#333"/><path d="M43.89,11.73,42,22.19a7.43,7.43,0,0,1-7,6H29.38a4.91,4.91,0,0,1-4.95-6l1.86-10.46a7.45,7.45,0,0,1,7-6H39A4.9,4.9,0,0,1,43.89,11.73Zm-4.45.1a1.34,1.34,0,0,0-1.36-1.66H32.6a2.07,2.07,0,0,0-2,1.66l-1.8,10.29a1.37,1.37,0,0,0,1.37,1.66h5.47a2.08,2.08,0,0,0,2-1.66Z" style="fill:#333"/><path d="M74.2,11.73,72.34,22.19a7.43,7.43,0,0,1-7,6H54.11l4-22.42H69.28A4.9,4.9,0,0,1,74.2,11.73Zm-4.45.1a1.34,1.34,0,0,0-1.36-1.66H61.65l-2,11.42L57.1,23.78H66a2.07,2.07,0,0,0,2-1.66Z" style="fill:#333"/><path d="M92.42,14.75l-.79,4.42H80.4l-.49,2.95a1.36,1.36,0,0,0,1.36,1.66h9.56l-.76,4.39H80.44a4.92,4.92,0,0,1-5-6l1.86-10.46a7.45,7.45,0,0,1,7-6H94l-2.13,4.42H83.66a2.07,2.07,0,0,0-2,1.66L80.8,17l2.63-2.23Z" style="fill:#333"/><path d="M99.2,28.17a4.91,4.91,0,0,1-5-6L97.17,5.75h4.38L98.66,22.12A1.37,1.37,0,0,0,100,23.78h6.77l.56,4.39Z" style="fill:#333"/><path d="M109,28.17l4-22.42h4.39l-4,22.42Z" style="fill:#333"/><path d="M137.84,5.75l-10,22.42h-6.64L119.18,5.75h4.55l1.63,17.83,7.93-17.83Z" style="fill:#333"/><path d="M154.34,14.75l-.8,4.42H142.32l-.5,2.95a1.37,1.37,0,0,0,1.36,1.66h9.57L152,28.17h-9.63a4.91,4.91,0,0,1-4.94-6l1.86-10.46a7.45,7.45,0,0,1,7-6h9.62l-2.12,4.42h-8.23a2.07,2.07,0,0,0-2,1.66l-.9,5.15,2.62-2.23Z" style="fill:#333"/><path d="M169,28.17l-2.72-6.74h-3.88L164.53,17h4.75a2.06,2.06,0,0,0,2-1.66l.6-3.52a1.34,1.34,0,0,0-1.36-1.66h-7.81l-3.15,18h-4.38l4-22.42h12.28a4.86,4.86,0,0,1,4.92,5.88v.1l-.67,3.72v.1a7.58,7.58,0,0,1-4.48,5.35l3,7.27Zm6.61-12.62v0Zm.67-3.82v0Z" style="fill:#333"/><path d="M194.71,14.75l-.8,4.42H182.69l-.5,2.95a1.37,1.37,0,0,0,1.37,1.66h9.56l-.77,4.39h-9.62a4.91,4.91,0,0,1-4.95-6l1.86-10.46a7.45,7.45,0,0,1,7-6h9.63l-2.13,4.42H186a2.07,2.07,0,0,0-2,1.66l-.9,5.15,2.62-2.23Z" style="fill:#333"/><path d="M215.59,11.73l-1.86,10.46a7.41,7.41,0,0,1-7,6H195.51l4-22.42h11.22A4.89,4.89,0,0,1,215.59,11.73Zm-4.45.1a1.34,1.34,0,0,0-1.36-1.66H203l-2,11.42-2.53,2.19h8.9a2.08,2.08,0,0,0,2-1.66Z" style="fill:#333"/><path d="M246.3,11.73l-1.86,10.46a7.41,7.41,0,0,1-7,6h-5.65a4.91,4.91,0,0,1-4.94-6l1.86-10.46a7.45,7.45,0,0,1,7-6h5.64A4.89,4.89,0,0,1,246.3,11.73Zm-4.45.1a1.34,1.34,0,0,0-1.36-1.66H235a2.07,2.07,0,0,0-1.95,1.66l-1.8,10.29a1.37,1.37,0,0,0,1.36,1.66h5.48a2.08,2.08,0,0,0,2-1.66Z" style="fill:#333"/><path d="M260.45,28.17l-2.73-6.74h-3.88L256,17h4.75a2,2,0,0,0,2-1.66l.6-3.52a1.34,1.34,0,0,0-1.36-1.66H254.1l-3.15,18h-4.38l4-22.42H262.8a4.86,4.86,0,0,1,4.92,5.88v.1l-.67,3.72v.1a7.56,7.56,0,0,1-4.48,5.35l3,7.27Zm6.6-12.62v0Zm.67-3.82v0Z" style="fill:#333"/><path d="M288.27,11.73l-1.86,10.46a7.43,7.43,0,0,1-7,6H268.18l3.95-22.42h11.22A4.9,4.9,0,0,1,288.27,11.73Zm-4.45.1a1.34,1.34,0,0,0-1.36-1.66h-6.74l-2,11.42-2.52,2.19h8.9a2.09,2.09,0,0,0,2-1.66Z" style="fill:#333"/><path d="M306.49,14.75l-.79,4.42H294.48l-.5,2.95a1.36,1.36,0,0,0,1.36,1.66h9.56l-.76,4.39h-9.63a4.92,4.92,0,0,1-4.95-6l1.86-10.46a7.46,7.46,0,0,1,7-6h9.63L306,10.17h-8.23a2.08,2.08,0,0,0-2,1.66l-.9,5.15,2.63-2.23Z" style="fill:#333"/><path d="M321.17,28.17l-2.72-6.74h-3.89L316.69,17h4.74a2,2,0,0,0,2-1.66l.6-3.52a1.34,1.34,0,0,0-1.36-1.66h-7.8l-3.16,18h-4.38l3.95-22.42h12.29a4.86,4.86,0,0,1,4.91,5.88v.1l-.66,3.72v.1a7.6,7.6,0,0,1-4.49,5.35l3,7.27Zm6.61-12.62v0Zm.66-3.82v0Z" style="fill:#333"/><path d="M348.19,22.19a7.42,7.42,0,0,1-7,6H328.9L331,23.78h10.86a2.09,2.09,0,0,0,2-1.66l.2-1.29a1.34,1.34,0,0,0-1.36-1.66h-6.21a4.89,4.89,0,0,1-4.91-6l.26-1.46a7.46,7.46,0,0,1,7-6h10.63l-2.13,4.42H338.1a2.08,2.08,0,0,0-2,1.66l-.2,1.26a1.36,1.36,0,0,0,1.36,1.66h6.25a4.9,4.9,0,0,1,4.91,6Z" style="fill:#333"/></svg>