<?xml version="1.0" encoding="utf-8"?>
<!-- Generator: Adobe Illustrator 25.2.0, SVG Export Plug-In . SVG Version: 6.00 Build 0)  -->
<svg version="1.1" id="Layer_1" xmlns="http://www.w3.org/2000/svg" xmlns:xlink="http://www.w3.org/1999/xlink" x="0px" y="0px"
	 viewBox="0 0 319 33.9" style="enable-background:new 0 0 319 33.9;" xml:space="preserve">
<style type="text/css">
	.st0{fill:#333333;}
</style>
<g>
	<path class="st0" d="M19.4,28.2h-4.4l-6-13.9l-2.4,14H2.1L6,5.8h4.4l6,14l2.5-14h4.4l-3.8,21.2L19.4,28.2z"/>
	<path class="st0" d="M43,11.7l-1.9,10.5c-0.7,3.4-3.6,5.9-7,6h-5.7c-2.7,0.1-5-2.1-5.1-4.8c0-0.4,0-0.8,0.1-1.2l1.9-10.5
		c0.7-3.4,3.6-5.9,7-6H38c2.7-0.1,5,2,5.1,4.7C43.1,10.9,43.1,11.3,43,11.7z M38.5,11.8c0.2-0.7-0.3-1.4-1-1.6c-0.1,0-0.3,0-0.4,0
		h-5.5c-1,0-1.8,0.7-2,1.7L28,22.1c-0.2,0.7,0.3,1.5,1,1.6c0.1,0,0.2,0,0.3,0h5.5c1,0,1.8-0.7,2-1.7L38.5,11.8z"/>
	<path class="st0" d="M73.7,15.4v0.1c-0.7,3.3-3.6,5.7-7,5.9h-6.2l2.1-4.4h4.8c1,0,1.8-0.7,2-1.7l0.6-3.5c0.2-0.7-0.3-1.4-1-1.6
		c-0.1,0-0.3,0-0.4,0h-7.8l-3.2,18h-4.4l4-22.4h12.3c2.7-0.1,4.9,2,5,4.7c0,0.4,0,0.8-0.1,1.2v0.1L73.7,15.4z M73.7,15.6L73.7,15.6z
		 M74.4,11.7L74.4,11.7z"/>
	<path class="st0" d="M92.4,14.8l-0.8,4.4H80.4l-0.5,3c-0.2,0.7,0.3,1.5,1,1.6c0.1,0,0.2,0,0.3,0h9.6l-0.8,4.4h-9.6
		c-2.7,0.1-5-2-5.1-4.7c0-0.4,0-0.9,0.1-1.3l1.9-10.5c0.7-3.4,3.6-5.9,7-6H94l-2.1,4.4h-8.2c-1,0-1.8,0.7-2,1.7L80.8,17l2.6-2.2
		L92.4,14.8z"/>
	<path class="st0" d="M110.5,28.2h-4.4l-6-13.9l-2.5,14h-4.4l4-22.4h4.4l6,14L110,5.8h4.4l-3.8,21.2L110.5,28.2z"/>
	<path class="st0" d="M133.7,11.7l-1.9,10.5c-0.7,3.4-3.6,5.9-7,6h-11.2l4-22.4h11.2c2.7,0,4.9,2.1,5,4.8
		C133.8,11,133.8,11.3,133.7,11.7z M129.3,11.8c0.2-0.7-0.3-1.4-1-1.6c-0.1,0-0.3,0-0.4,0h-6.7l-2,11.4l-2.5,2.2h8.9
		c1,0,1.8-0.7,2-1.7L129.3,11.8z"/>
	<path class="st0" d="M134,28.2l3.9-22.4h4.4l-3.9,22.4H134z"/>
	<path class="st0" d="M158.8,28.2h-4.4l-6-13.9l-2.4,14h-4.4l3.9-22.4h4.4l6,14l2.5-13.9h4.4L159,26.9L158.8,28.2z"/>
	<path class="st0" d="M181.2,22.2c-0.7,3.4-3.6,5.9-7,6h-6.3c-2.7,0.1-5-2.1-5.1-4.8c0-0.4,0-0.8,0.1-1.2l1.9-10.5
		c0.7-3.4,3.6-5.9,7-6h9.6l-2.1,4.4h-8.2c-1,0-1.8,0.7-2,1.7l-1.8,10.3c-0.2,0.7,0.3,1.5,1,1.6c0.1,0,0.2,0,0.3,0h6.1
		c1,0,1.8-0.7,2-1.7l0.5-3H173l-0.5-4.4h10.1L181.2,22.2z"/>
	<path class="st0" d="M213.8,11.7l-1.9,10.5c-0.7,3.4-3.6,5.9-7,6h-5.6c-2.7,0.1-5-2.1-5.1-4.8c0-0.4,0-0.8,0.1-1.2l1.9-10.5
		c0.7-3.4,3.6-5.9,7-6h5.6c2.7-0.1,5,2,5.1,4.7C213.9,10.9,213.9,11.3,213.8,11.7z M209.4,11.8c0.2-0.7-0.3-1.4-1-1.6
		c-0.1,0-0.2,0-0.4,0h-5.5c-1,0-1.8,0.7-2,1.7l-1.8,10.3c-0.2,0.7,0.3,1.5,1,1.6c0.1,0,0.2,0,0.3,0h5.5c1,0,1.8-0.7,2-1.7
		L209.4,11.8z"/>
	<path class="st0" d="M227.9,28.2l-2.7-6.7h-3.9l2.1-4.4h4.8c1,0,1.8-0.7,2-1.7l0.6-3.5c0.2-0.7-0.3-1.5-1-1.6c-0.1,0-0.2,0-0.4,0
		h-7.8l-3.1,18h-4.4l4-22.4h12.2c2.7-0.1,4.9,2,5,4.7c0,0.4,0,0.8-0.1,1.2v0.1l-0.7,3.7v0.1c-0.5,2.4-2.2,4.4-4.5,5.4l3,7.3
		L227.9,28.2z M234.6,15.6L234.6,15.6z M235.2,11.7L235.2,11.7z"/>
	<path class="st0" d="M255.8,11.7l-1.9,10.5c-0.7,3.4-3.6,5.9-7,6h-11.2l3.9-22.4h11.2c2.7-0.1,5,2.1,5,4.8
		C255.9,10.9,255.9,11.3,255.8,11.7z M251.3,11.8c0.2-0.7-0.3-1.5-1-1.6c-0.1,0-0.2,0-0.3,0h-6.7l-2,11.4l-2.5,2.2h8.9
		c1,0,1.8-0.7,2-1.7L251.3,11.8z"/>
	<path class="st0" d="M274,14.8l-0.8,4.4H262l-0.5,3c-0.2,0.7,0.3,1.5,1,1.6c0.1,0,0.2,0,0.3,0h9.6l-0.8,4.4H262
		c-2.7,0.1-5-2-5.1-4.7c0-0.4,0-0.8,0.1-1.3l1.9-10.5c0.7-3.4,3.6-5.9,7-6h9.6l-2.1,4.4h-8.2c-1,0-1.8,0.7-2,1.7l-0.9,5.2l2.7-2.2
		H274z"/>
	<path class="st0" d="M288.7,28.2l-2.7-6.7h-3.9l2.1-4.4h4.8c1,0,1.8-0.7,2-1.7l0.6-3.5c0.2-0.7-0.3-1.4-1-1.6c-0.1,0-0.3,0-0.4,0
		h-7.8l-3.1,18h-4.4l4-22.4H291c2.7-0.1,4.9,2,5,4.7c0,0.4,0,0.8-0.1,1.2v0.1l-0.7,3.7v0.1c-0.5,2.4-2.2,4.4-4.5,5.4l3,7.3
		L288.7,28.2z M295.3,15.6L295.3,15.6z M295.9,11.7L295.9,11.7z"/>
	<path class="st0" d="M315.7,22.2c-0.7,3.4-3.6,5.9-7,6h-12.3l2.1-4.4h10.9c1,0,1.8-0.7,2-1.7l0.2-1.3c0.2-0.7-0.3-1.4-1-1.6
		c-0.1,0-0.3,0-0.4,0H304c-2.7,0.1-5-2-5-4.8c0-0.4,0-0.8,0.1-1.2l0.3-1.5c0.7-3.4,3.6-5.9,7-6H317l-2.1,4.4h-9.3
		c-1,0-1.8,0.7-2,1.7l-0.2,1.3c-0.2,0.7,0.3,1.5,1,1.6c0.1,0,0.2,0,0.4,0h6.2c2.7-0.1,5,2,5,4.8c0,0.4,0,0.8-0.1,1.2L315.7,22.2z"/>
</g>
</svg>
