<svg xmlns="http://www.w3.org/2000/svg" viewBox="0 0 412.55 42.6"><path d="M32.64,39.86H25.33L27.25,28.7H14.33l3.52-7.32H28.57l1.48-8.58a2.21,2.21,0,0,0-2.25-2.74H17.63a3.45,3.45,0,0,0-3.25,2.74L9.65,39.86H2.39L7.18,12.64a12.35,12.35,0,0,1,11.66-9.9H29.29c5.44,0,9.07,4.46,8.13,9.9Z" style="fill:#333"/><path d="M71.14,12.64,68.06,30a12.29,12.29,0,0,1-11.6,9.9H37.87L44.41,2.74H63C68.44,2.74,72.07,7.2,71.14,12.64Zm-7.37.16a2.22,2.22,0,0,0-2.25-2.74H50.35L47,29,42.82,32.6H57.56a3.44,3.44,0,0,0,3.24-2.75Z" style="fill:#333"/><path d="M104.85,12.64,101.77,30a12.29,12.29,0,0,1-11.6,9.9H71.58L78.13,2.74H96.71C102.16,2.74,105.79,7.2,104.85,12.64Zm-7.37.16a2.21,2.21,0,0,0-2.25-2.74H84.07L80.71,29,76.53,32.6H91.27a3.44,3.44,0,0,0,3.24-2.75Z" style="fill:#333"/><path d="M152,39.86h-7.31l1.92-11.16H133.73l3.52-7.32H148l1.49-8.58a2.22,2.22,0,0,0-2.26-2.74H137a3.45,3.45,0,0,0-3.25,2.74l-4.72,27.06H121.8l4.78-27.22a12.37,12.37,0,0,1,11.66-9.9h10.45c5.44,0,9.07,4.46,8.14,9.9Z" style="fill:#333"/><path d="M207.7,18.8V19A12.46,12.46,0,0,1,196,28.7H185.81l3.52-7.32h7.87a3.39,3.39,0,0,0,3.24-2.75l1-5.83a2.21,2.21,0,0,0-2.25-2.74H186.25L181,39.86h-7.26l6.54-37.12h20.35c5.39,0,9,4.35,8.14,9.73v.17Zm0,.16v0Zm1.1-6.32v0Z" style="fill:#333"/><path d="M239.22,39.86H231.9l1.93-11.16H220.9l3.52-7.32h10.73l1.48-8.58a2.21,2.21,0,0,0-2.25-2.74H224.2A3.44,3.44,0,0,0,221,12.8l-4.73,27.06H209l4.78-27.22a12.37,12.37,0,0,1,11.66-9.9h10.45c5.45,0,9.08,4.46,8.14,9.9Z" style="fill:#333"/><path d="M271.06,32.6l-1.26,7.26H254.34c-5.44,0-9.13-4.45-8.19-9.9l3.08-17.32a12.35,12.35,0,0,1,11.66-9.9h15.45l-3.52,7.32H259.68a3.45,3.45,0,0,0-3.25,2.74l-3,17.05a2.26,2.26,0,0,0,2.26,2.75Z" style="fill:#333"/><path d="M288,2.74l-6.54,37.12H274.2l6.54-37.12Zm5.83,18.59,10.78,18.53h-9.13L284.7,21.33,302,2.74h9.12Z" style="fill:#333"/><path d="M337.06,39.86h-7.31l1.92-11.16H318.75l3.52-7.32H333l1.48-8.58a2.21,2.21,0,0,0-2.25-2.74H322.05a3.45,3.45,0,0,0-3.25,2.74l-4.73,27.06h-7.26l4.79-27.22a12.35,12.35,0,0,1,11.66-9.9H333.7c5.45,0,9.08,4.46,8.14,9.9Z" style="fill:#333"/><path d="M374.24,30a12.3,12.3,0,0,1-11.61,9.9H352.19c-5.45,0-9.13-4.45-8.2-9.9l3.08-17.32a12.37,12.37,0,0,1,11.66-9.9h15.95l-3.52,7.32H357.52a3.44,3.44,0,0,0-3.24,2.74l-3,17.05a2.26,2.26,0,0,0,2.25,2.75h10.17A3.46,3.46,0,0,0,367,29.85L367.8,25h-7.26l-.88-7.32h16.78Z" style="fill:#333"/><path d="M407.51,17.64,406.19,25H387.61l-.83,4.89A2.26,2.26,0,0,0,389,32.6h15.83l-1.26,7.26H387.66c-5.44,0-9.13-4.45-8.19-9.9l3.08-17.32a12.35,12.35,0,0,1,11.65-9.9h15.95l-3.52,7.32H393a3.45,3.45,0,0,0-3.24,2.74l-1.48,8.53,4.34-3.69Z" style="fill:#333"/></svg>