<?xml version="1.0" encoding="utf-8"?>
<!-- Generator: Adobe Illustrator 25.2.0, SVG Export Plug-In . SVG Version: 6.00 Build 0)  -->
<svg version="1.1" id="Layer_1" xmlns="http://www.w3.org/2000/svg" xmlns:xlink="http://www.w3.org/1999/xlink" x="0px" y="0px"
	 viewBox="0 0 319 38.6" style="enable-background:new 0 0 319 38.6;" xml:space="preserve">
<style type="text/css">
	.st0{fill:#333333;}
</style>
<path class="st0" d="M26,17.5v0.1c-0.9,4-4.4,6.8-8.4,7h-7.4l2.6-5.3h5.7c1.2,0,2.1-0.9,2.3-2l0.7-4.2c0.2-0.9-0.3-1.7-1.1-2
	c-0.2,0-0.3-0.1-0.5,0h-9.4L6.7,32.7H1.4L6.1,5.9h14.7c3.2-0.1,5.9,2.4,6,5.6c0,0.5,0,1-0.1,1.4V13L26,17.5z M26,17.6L26,17.6z
	 M26.8,13L26.8,13z"/>
<path class="st0" d="M48.4,16.7l-1,5.3H34l-0.6,3.5c-0.2,0.9,0.4,1.8,1.2,2c0.1,0,0.3,0,0.4,0h11.5l-0.9,5.2H34
	c-3.2,0.1-6-2.4-6.1-5.7c0-0.5,0-1,0.1-1.5L30.4,13c0.8-4.1,4.3-7,8.4-7.2h11.5l-2.5,5.3h-9.9c-1.2,0-2.1,0.9-2.3,2l-1.1,6.2
	l3.1-2.7L48.4,16.7z"/>
<path class="st0" d="M70.1,32.7h-5.3L57.6,16l-2.9,16.7h-5.3l4.7-26.9h5.3l7.2,16.7l3-16.7h5.3l-4.5,25.4L70.1,32.7z"/>
<path class="st0" d="M97.9,13l-2.2,12.6c-0.8,4-4.3,7-8.4,7.2H73.8l4.7-26.9h13.5c3.2-0.1,5.9,2.5,6,5.7C98.1,12.1,98,12.5,97.9,13z
	 M92.6,13.1c0.2-0.9-0.3-1.7-1.1-2c-0.2,0-0.3-0.1-0.5,0h-8.1l-2.4,13.7l-3,2.6h10.7c1.1,0,2.1-0.9,2.3-2L92.6,13.1z"/>
<path class="st0" d="M98.3,32.7L103,5.9h5.3l-4.7,26.9H98.3z"/>
<path class="st0" d="M128,32.7h-5.3L115.5,16l-2.9,16.7h-5.3L112,5.9h5.2l7.2,16.7l3-16.7h5.3l-4.5,25.4L128,32.7z"/>
<path class="st0" d="M154.9,25.6c-0.8,4-4.3,7-8.4,7.2h-7.6c-3.2,0.1-6-2.4-6.1-5.7c0-0.5,0-1,0.1-1.5l2.2-12.6
	c0.8-4.1,4.3-7,8.4-7.2h11.5l-2.6,5.3h-9.9c-1.2,0-2.1,0.9-2.4,2l-2.1,12.4c-0.2,0.9,0.4,1.8,1.2,2c0.1,0,0.3,0,0.4,0h7.4
	c1.1,0,2.1-0.9,2.4-2l0.6-3.5H145l-0.6-5.3h12.1L154.9,25.6z"/>
<path class="st0" d="M194,13l-2.2,12.5c-0.8,4-4.3,7-8.4,7.2h-6.8c-3.3,0.1-6-2.5-6.1-5.7c0-0.5,0-1,0.1-1.5l2.2-12.5
	c0.8-4,4.3-7,8.4-7.2h6.8c3.2-0.1,6,2.4,6.1,5.6C194.2,12,194.1,12.5,194,13z M188.7,13.1c0.2-0.9-0.3-1.7-1.2-2
	c-0.2,0-0.3-0.1-0.5,0h-6.6c-1.2,0-2.1,0.9-2.4,2l-2.2,12.4c-0.2,0.9,0.3,1.8,1.2,2c0.1,0,0.3,0,0.4,0h6.6c1.1,0,2.1-0.9,2.4-2
	L188.7,13.1z"/>
<path class="st0" d="M210.9,32.7l-3.3-8.1H203l2.5-5.3h5.7c1.2,0,2.1-0.9,2.4-2l0.7-4.2c0.2-0.9-0.3-1.7-1.1-2c-0.2,0-0.3-0.1-0.5,0
	h-9.4l-3.8,21.6h-5.2L199,5.9h14.7c3.2-0.1,5.9,2.4,6,5.6c0,0.5,0,0.9-0.1,1.4V13l-0.8,4.5v0.1c-0.6,2.9-2.6,5.3-5.4,6.4l3.5,8.7
	H210.9z M218.8,17.6L218.8,17.6z M219.6,13L219.6,13z"/>
<path class="st0" d="M244.3,13L242,25.6c-0.8,4-4.3,7-8.4,7.2h-13.4l4.7-26.9h13.5c3.2-0.1,5.9,2.5,6,5.7
	C244.4,12.1,244.4,12.5,244.3,13z M238.9,13.1c0.2-0.9-0.3-1.7-1.1-2c-0.2,0-0.3-0.1-0.5,0h-8.1l-2.4,13.7l-3,2.6h10.7
	c1.2,0,2.1-0.9,2.4-2L238.9,13.1z"/>
<path class="st0" d="M266.1,16.7l-1,5.3h-13.5l-0.6,3.5c-0.2,0.9,0.4,1.8,1.2,2c0.1,0,0.3,0,0.4,0h11.5l-0.9,5.2h-11.5
	c-3.2,0.1-6-2.4-6.1-5.7c0-0.5,0-1,0.1-1.5l2.2-12.6c0.8-4.1,4.3-7,8.4-7.2H268l-2.5,5.3h-9.9c-1.2,0-2.1,0.9-2.4,2l-1.1,6.2
	l3.1-2.7L266.1,16.7z"/>
<path class="st0" d="M283.7,32.7l-3.3-8.1h-4.7l2.5-5.3h5.7c1.2,0,2.1-0.9,2.4-2l0.7-4.2c0.2-0.9-0.3-1.7-1.1-2
	c-0.2,0-0.3-0.1-0.5,0h-9.4l-3.8,21.6H267l4.7-26.9h14.7c3.2-0.1,5.9,2.4,6,5.6c0,0.5,0,1-0.1,1.4V13l-0.8,4.5v0.1
	c-0.6,2.9-2.6,5.3-5.4,6.4l3.5,8.7L283.7,32.7z M291.6,17.6L291.6,17.6z M292.4,13L292.4,13z"/>
<path class="st0" d="M316.1,25.6c-0.8,4-4.3,7-8.4,7.2H293l2.5-5.2h13c1.2,0,2.1-0.9,2.4-2l0.2-1.5c0.2-0.9-0.3-1.7-1.1-2
	c-0.2,0-0.3-0.1-0.5,0H302c-3.2,0.1-5.9-2.5-6-5.7c0-0.5,0-1,0.1-1.5l0.3-1.8c0.8-4,4.3-7,8.4-7.2h12.7l-2.5,5.3H304
	c-1.1,0-2.1,0.9-2.3,2l-0.2,1.5c-0.2,0.9,0.3,1.7,1.2,2c0.1,0,0.3,0,0.4,0h7.5c3.2-0.1,6,2.5,6,5.7c0,0.5,0,1-0.1,1.5L316.1,25.6z"
	/>
</svg>
