<?xml version="1.0" encoding="utf-8"?>
<!-- Generator: Adobe Illustrator 25.2.0, SVG Export Plug-In . SVG Version: 6.00 Build 0)  -->
<svg version="1.1" id="Layer_1" xmlns="http://www.w3.org/2000/svg" xmlns:xlink="http://www.w3.org/1999/xlink" x="0px" y="0px"
	 viewBox="0 0 342.9 68.3" style="enable-background:new 0 0 342.9 68.3;" xml:space="preserve">
<style type="text/css">
	.st0{fill:#333333;}
</style>
<g>
	<path class="st0" d="M55.4,48.9c-1.6,9.3-10.5,16.9-19.8,16.9H0.9l5.9-12.4h30.6c2.6,0,5.1-2.2,5.5-4.7l0.6-3.7
		c0.5-2.6-1.2-4.7-3.8-4.7H22.2c-9.3,0-15.5-7.6-13.9-16.9l0.7-4.1c1.6-9.3,10.6-16.9,19.9-16.9h30l-6,12.5h-26
		c-2.5,0-5.1,2.1-5.5,4.7l-0.6,3.6c-0.5,2.6,1.3,4.7,3.8,4.7h17.6c9.3,0,15.5,7.6,13.9,16.9L55.4,48.9z"/>
	<path class="st0" d="M59,65.8L70.1,2.6h12.4L71.4,65.8H59z"/>
	<path class="st0" d="M134.7,48.9c-1.6,9.3-10.5,16.9-19.8,16.9H97.1c-9.3,0-15.5-7.6-14-16.9l5.2-29.5C90,10.1,99,2.6,108.3,2.6
		h27.2l-6,12.5h-23.2c-2.5,0-5.1,2.1-5.5,4.7l-5.1,29c-0.5,2.5,1.3,4.7,3.8,4.7h17.3c2.6,0,5.1-2.2,5.5-4.7l1.4-8.3h-12.4l-1.5-12.5
		h28.6L134.7,48.9z"/>
	<path class="st0" d="M189.4,65.8h-12.5l-17-39.3L153,65.8h-12.4l11.1-63.2h12.4L181,41.9l7-39.3h12.5l-10.6,59.8L189.4,65.8z"/>
	<path class="st0" d="M276.1,48.9c-1.6,9.3-10.5,16.9-19.8,16.9h-13.1c-9.3,0-15.5-7.6-14-16.9l8.2-46.4h12.4l-8.1,46.2
		c-0.5,2.5,1.3,4.7,3.8,4.7h12.6c2.6,0,5.1-2.2,5.5-4.7l8.1-46.2h12.5L276.1,48.9z"/>
	<path class="st0" d="M339.9,29.9c0,0.1,0,0.2,0,0.3c-1.9,9.2-10.7,16.6-19.9,16.6h-17.4l6-12.5H322c2.6,0,5.1-2.1,5.5-4.7l1.7-9.9
		c0.5-2.6-1.2-4.7-3.8-4.7h-22l-8.9,50.8h-12.4l11.1-63.2h34.7c9.2,0,15.4,7.4,13.9,16.6c0,0.1,0,0.2,0,0.3L339.9,29.9z M339.9,30.2
		v-0.3C339.9,30,339.9,30.1,339.9,30.2z M341.7,19.4v-0.3C341.7,19.2,341.7,19.3,341.7,19.4z"/>
</g>
</svg>
