<svg xmlns="http://www.w3.org/2000/svg" viewBox="0 0 350 350"><path d="M60.2,183.05c-1.62,9.42-10.67,17.14-20.1,17.14H4.87l6-12.57H42a6,6,0,0,0,5.62-4.76l.57-3.72a3.85,3.85,0,0,0-3.91-4.76H26.49c-9.43,0-15.72-7.71-14.1-17.14l.76-4.19c1.62-9.43,10.76-17.14,20.19-17.14H63.82l-6.1,12.66H31.25a6,6,0,0,0-5.62,4.77L25.06,157a3.88,3.88,0,0,0,3.9,4.77H46.87c9.42,0,15.71,7.71,14.09,17.14Z" style="fill:#333"/><path d="M63.91,200.19l9.71-55.52H86.2l-9.72,55.52Zm12.57-71.42-2.09,11.8,13.23-3.8,1.43-8Z" style="fill:#333"/><path d="M137.62,190.57a41.68,41.68,0,0,1-10,20.57l-.19.29-.29.28-9.61,9.52-7.43-8.95,8.66-8.47A28.67,28.67,0,0,0,125,190.57l5.91-33.24H108.19a3.14,3.14,0,0,0-3,2.48l-4.39,25.24a2.07,2.07,0,0,0,2.1,2.57h18.86l-6,12.57H98.1c-6.95,0-11.62-5.62-10.38-12.57l5.33-30.29c1.24-7,7.81-12.66,14.76-12.66h19L132,151l1.05-6.28h12.66Z" style="fill:#333"/><path d="M192.66,200.19H180l7-40.38a1.93,1.93,0,0,0-2-2.48h-19.9l-7.52,42.86H145.05l9.71-55.52h12.57L166.28,151l7.43-6.28h16c7,0,11.71,5.62,10.48,12.66Z" style="fill:#333"/><path d="M280.84,183.05c-1.62,9.42-10.66,17.14-20.09,17.14H247.42c-9.43,0-15.81-7.72-14.19-17.14l8.38-47.14h12.57l-8.29,47a3.92,3.92,0,0,0,3.91,4.76h12.85a6,6,0,0,0,5.62-4.76l8.29-47h12.66Z" style="fill:#333"/><path d="M339.6,187.62a15.64,15.64,0,0,1-14.86,12.57H307.22l-1.62-12.57h18.86a3.13,3.13,0,0,0,3-2.57l4.38-25.24a1.93,1.93,0,0,0-2-2.48H307l-10.38,58.76H284.08l12.57-71.42h12.57L308.17,151l7.43-6.28h18.86c7,0,11.71,5.62,10.47,12.66Z" style="fill:#333"/></svg>