<svg xmlns="http://www.w3.org/2000/svg" viewBox="0 0 51.53 59.39"><path d="M30,30.2c0-4.46-1-6.3-3.27-6.3a3.48,3.48,0,0,0-1.41.29V36.41a3.75,3.75,0,0,0,1.29.24C28.86,36.65,30,34.55,30,30.2Z" style="fill:#333"/><path d="M48.92,7.92c-10-5.38-22.35-5-22.87-5s-12.84-.36-22.83,5l-.33.18V35.21A17.36,17.36,0,0,0,9.15,49.15c3.93,3.22,16.4,8.61,16.92,8.83.52-.22,13-5.61,16.92-8.83a17.36,17.36,0,0,0,6.26-13.94V8.1ZM48.63,35.2a16.74,16.74,0,0,1-6,13.47c-3.9,3.19-16.52,8.63-16.52,8.63S13.45,51.86,9.55,48.67a16.74,16.74,0,0,1-6-13.47V8.47c10-5.36,22.56-4.94,22.56-4.94s12.6-.42,22.56,4.94Z" style="fill:#333"/><path d="M5.3,35.2a15.05,15.05,0,0,0,5.38,12.08c3.16,2.59,12.72,6.89,15.39,8.06,2.66-1.17,12.23-5.47,15.38-8.06A15,15,0,0,0,46.84,35.2V8.85c-13.32-1.24-29.07-.48-41.54,11Zm35-14.51A6.84,6.84,0,0,1,44.63,22v3.46a5.32,5.32,0,0,0-3.57-1.64c-1.12,0-2.3.49-2.33,1.9s1.13,2,2.61,2.89c3.33,2,4,3.71,3.89,6A5.37,5.37,0,0,1,39.47,40a8.72,8.72,0,0,1-4.37-1.23V35.06a6.28,6.28,0,0,0,3.8,1.61,2.12,2.12,0,0,0,2.39-2.21c0-1.25-.74-1.93-2.49-3-3.28-1.92-3.87-3.5-3.87-5.62A5.28,5.28,0,0,1,40.26,20.69Zm-19,1.42a9.66,9.66,0,0,1,5.37-1.41c4.74,0,7.35,3.6,7.35,9.4s-2.53,9.79-7,9.79a6.2,6.2,0,0,1-1.79-.23V48h-4Zm-14-1h4V33.78c0,1.13.27,2.8,2.1,2.8a3.29,3.29,0,0,0,1.88-.49v-15h4V38.36a10.59,10.59,0,0,1-6,1.59c-3.94,0-5.93-2.13-5.93-6.35Z" style="fill:#333"/></svg>