<svg xmlns="http://www.w3.org/2000/svg" viewBox="0 0 53.02 33.34"><path d="M7.94.92l-6.7,31.5H45.08L51.78.92Zm-.5,7.91H26.82c.36,0,11.68-.29,10.89,1.95H19.92l2.78,8.63c2.47-1.3,11-4.71,15.51-4.93,1.47-.06,2.33,0,2.36.42,0,.16-.35.31-1.22.46a65,65,0,0,0-6.92,1.88,105.78,105.78,0,0,0-13.38,6c-1.78.92-16.37,8.07-16.37,8.07Zm34.44,3.6c-1.15-.37-5,.44-7.12.44-.93,0-1-.13-1-.35s.18-.31.83-.37a10.28,10.28,0,0,0,2.66-.48,1.48,1.48,0,0,0,.6-.47c.15-.2.26-.29.39-.29H40.7c1.56,0,2.68.2,2.53,1.51a9.19,9.19,0,0,1-1.32,3c-.22.25-.6.28-.41-.27C42,13.72,42.49,12.63,41.88,12.43Zm2.25,18.83H6.2s36.26-14,36.74-14.36c0,0,3.35-5.08,1.29-6.8-.69-.57-1.17-.74-5.09-.71,0,0,.17-1.08-5.43-2.07L8.85,2.22l0-.13H50.34Z" style="fill:#333"/></svg>