<svg xmlns="http://www.w3.org/2000/svg" viewBox="0 0 424.19 50.24"><path d="M49.16,7.1,33.91,46.23H24.63L24,23.8,15.53,46.23H6.26L4.75,7.1h7.83l.93,24.12L23,7.1H31l.87,24.12L41.33,7.1Z" style="fill:#333"/><path d="M79.12,22.81l-1.39,7.71H58.13l-.87,5.16a2.39,2.39,0,0,0,2.38,2.9h16.7L75,46.23H58.19c-5.74,0-9.62-4.69-8.63-10.43L52.8,17.54A13,13,0,0,1,65.09,7.1H81.9l-3.71,7.71H63.82a3.63,3.63,0,0,0-3.42,2.9l-1.57,9,4.58-3.89Z" style="fill:#333"/><path d="M90.94,46.23c-5.74,0-9.62-4.69-8.64-10.43L87.4,7.1h7.66L90,35.68a2.38,2.38,0,0,0,2.38,2.9h11.82l1,7.65Z" style="fill:#333"/><path d="M133.83,38.58l-1.33,7.65H116.21c-5.74,0-9.62-4.69-8.64-10.43l3.25-18.26A13,13,0,0,1,123.11,7.1H139.4l-3.71,7.71H121.83a3.64,3.64,0,0,0-3.42,2.9l-3.13,18a2.39,2.39,0,0,0,2.38,2.9Z" style="fill:#333"/><path d="M172.9,17.54,169.65,35.8a13,13,0,0,1-12.23,10.43h-9.85c-5.74,0-9.62-4.69-8.64-10.43l3.25-18.26A13,13,0,0,1,154.47,7.1h9.85C170.06,7.1,173.89,11.8,172.9,17.54Zm-7.77.17a2.34,2.34,0,0,0-2.37-2.9h-9.57a3.64,3.64,0,0,0-3.42,2.9l-3.13,18a2.38,2.38,0,0,0,2.38,2.9h9.56a3.63,3.63,0,0,0,3.42-2.9Z" style="fill:#333"/><path d="M216.08,7.1l-6.9,39.13h-7.65l4.29-24.35-9.45,12h-5.91l-5.16-12L181,46.23h-7.65l6.9-39.13h7.65L195.16,24,208.43,7.1Z" style="fill:#333"/><path d="M246.05,22.81l-1.39,7.71h-19.6l-.87,5.16a2.38,2.38,0,0,0,2.38,2.9h16.69l-1.33,7.65H225.12c-5.74,0-9.62-4.69-8.64-10.43l3.25-18.26A13,13,0,0,1,232,7.1h16.81l-3.71,7.71H230.74a3.64,3.64,0,0,0-3.42,2.9l-1.56,9,4.58-3.89Z" style="fill:#333"/><path d="M299,33.25l-.46,2.55a13,13,0,0,1-12.23,10.43H264.82l6.9-39.13h18.72c5.74,0,9.57,4.7,8.58,10.44l-.23,1.27a14.87,14.87,0,0,1-2.67,6A8.72,8.72,0,0,1,299,33.25Zm-7.76.17a2.34,2.34,0,0,0-2.38-2.9h-8.23l-.93-7.71h7.83a3.58,3.58,0,0,0,3.42-2.9l.35-2.2a2.35,2.35,0,0,0-2.38-2.9H278l-4.17,23.77h13.62a3.64,3.64,0,0,0,3.42-2.9Z" style="fill:#333"/><path d="M332.93,46.23h-7.71l2-11.77H313.63l3.71-7.71h11.3l1.57-9a2.34,2.34,0,0,0-2.38-2.9H317.1a3.64,3.64,0,0,0-3.42,2.9l-5,28.52h-7.65l5-28.69A13,13,0,0,1,318.38,7.1h11c5.74,0,9.57,4.7,8.58,10.44Z" style="fill:#333"/><path d="M366.49,38.58l-1.33,7.65H348.87c-5.74,0-9.63-4.69-8.64-10.43l3.25-18.26A13,13,0,0,1,355.77,7.1h16.28l-3.71,7.71H354.49a3.63,3.63,0,0,0-3.42,2.9l-3.13,18a2.38,2.38,0,0,0,2.38,2.9Z" style="fill:#333"/><path d="M384.34,7.1l-6.9,39.13h-7.65l6.9-39.13Zm6.14,19.6,11.37,19.53h-9.63L380.86,26.7,399.12,7.1h9.62Z" style="fill:#333"/><path d="M405,46.23l1.33-7.71h7.71l-1.33,7.71Zm6.78-43.48h9.45L414.13,34h-6.2Z" style="fill:#333"/></svg>